<svg xmlns="http://www.w3.org/2000/svg" viewBox="0 0 210 401.1035">
  <title>last-wins-branch-left</title>
  <g>
    <path d="M200,401.1035c-2.3081-2.3129-4.4993-4.7578-6.9419-6.9185-30.0761-26.6048-57.097-55.8985-78.9767-89.7082C92.21,270.68,76.6575,234.3487,71.3994,194.19c-3.8-29.019-2.48-57.8109,6.6432-85.9067.9148-2.8171,2.0985-5.5468,3.3052-8.7039L93.38,105.4086c-2.5649,9.75-5.6183,19.0594-7.4167,28.6047-6.6724,35.4154-2.29,69.9034,9.8216,103.579C111.1558,280.33,136.6107,316.7,167.5411,349.3891c12.4571,13.1653,26.0781,25.23,39.2131,37.75A17.2858,17.2858,0,0,0,210,389.1035v1l-9,11Z" style="fill: #ffffff;"/>
    <path d="M0,141.1035l2.752-11.2783C21.3336,133.13,35.8887,142.5774,46.95,157.2025c10.7336,14.192,13.8124,30.1866,9.1343,47.4762-20.378.1141-49.2784-14.7921-54.88-44.3928C.935,158.8667.4071,157.4965,0,156.1035Z" style="fill: #ffffff;"/>
    <path d="M210,317.1035c-2.6535,8.1181-4.7031,16.5022-8.1286,24.28-3.5042,7.9568-9.6484,14.173-16.5534,19.4138-29.62-22.3846-22.9264-68.9344,1.8034-91.7107,11.8037,9.9927,19.486,22.3231,21.96,37.7661a28.0134,28.0134,0,0,0,.9185,3.25Z" style="fill: #ffffff;"/>
    <path d="M103.8645,238.6992c-19.8038-35.5485,9.2175-74.8416,36.1013-83.7049C160.0187,188.5831,141.562,228.92,103.8645,238.6992Z" style="fill: #ffffff;"/>
    <path d="M115.9737,0c16.707,28.253,10.47,74.2525-24.3969,87.9885C70.6685,61.7672,74.8146,16.807,115.9737,0Z" style="fill: #ffffff;"/>
    <path d="M100.3207,157.3455c-14.2649-28.8821,10.5028-70.654,46.7975-78.9621,5.9906,17.0453,6.59,33.933-2.6883,49.9327C134.6449,145.1887,119.3286,154.2831,100.3207,157.3455Z" style="fill: #ffffff;"/>
    <path d="M106.6716,321.2934C77.625,337.233,34.389,327.6811,23.4721,284.01,51.382,267.0233,101.8072,289.62,106.6716,321.2934Z" style="fill: #ffffff;"/>
    <path d="M164.9483,212.1876c22.7673,33.9589,8.1959,71.2582-24.7813,86.3306-3.3038,1.51-4.4739-.0839-5.7369-2.5021-9.8926-18.9411-8.3894-37.5712,1.834-55.7721A69.6966,69.6966,0,0,1,164.9483,212.1876Z" style="fill: #ffffff;"/>
    <path d="M69.2982,348.61c28.1985-15.2338,74.0511-8.9066,87.28,27.05C131.5928,395.1478,85.639,391.8047,69.2982,348.61Z" style="fill: #ffffff;"/>
    <path d="M55.7934,142.4267C23.15,131.3362,3.0822,92.028,27.2531,55.8818,58.55,65.24,76.0078,118.18,55.7934,142.4267Z" style="fill: #ffffff;"/>
    <path d="M8.1211,207.4708c34.3345-2.89,72.386,26.5634,67.4673,61.0242C38.9847,275.2432,4.1046,247.9614,8.1211,207.4708Z" style="fill: #ffffff;"/>
  </g>
</svg>
