<svg xmlns="http://www.w3.org/2000/svg" viewBox="0 0 210 401.1035">
  <title>last-wins-branch-right</title>
  <g>
    <path d="M10,401.1035c2.3081-2.3129,4.4993-4.7578,6.9419-6.9185,30.0761-26.6048,57.097-55.8985,78.9767-89.7082C117.79,270.68,133.3425,234.3487,138.6006,194.19c3.8-29.019,2.48-57.8109-6.6432-85.9067-.9148-2.8171-2.0985-5.5468-3.3052-8.7039l-12.0317,5.8291c2.5649,9.75,5.6183,19.0594,7.4167,28.6047,6.6724,35.4154,2.29,69.9034-9.8216,103.579C98.8442,280.33,73.3893,316.7,42.4589,349.3891c-12.4571,13.1653-26.0781,25.23-39.2131,37.75A17.2858,17.2858,0,0,1,0,389.1035v1l9,11Z" style="fill: #ffffff;"/>
    <path d="M210,141.1035l-2.752-11.2783c-18.5816,3.3052-33.1367,12.7522-44.1978,27.3773-10.7336,14.192-13.8124,30.1866-9.1343,47.4762,20.378.1141,49.2784-14.7921,54.8805-44.3928.2686-1.4192.7965-2.7894,1.2036-4.1824Z" style="fill: #ffffff;"/>
    <path d="M0,317.1035c2.6535,8.1181,4.7031,16.5022,8.1286,24.28,3.5042,7.9568,9.6484,14.173,16.5534,19.4138,29.62-22.3846,22.9264-68.9344-1.8034-91.7107C11.0749,279.08,3.3926,291.41.9185,306.853A28.0134,28.0134,0,0,1,0,310.1035Z" style="fill: #ffffff;"/>
    <path d="M106.1355,238.6992c19.8038-35.5485-9.2175-74.8416-36.1013-83.7049C49.9813,188.5831,68.438,228.92,106.1355,238.6992Z" style="fill: #ffffff;"/>
    <path d="M94.0263,0c-16.707,28.253-10.47,74.2525,24.3969,87.9885C139.3315,61.7672,135.1854,16.807,94.0263,0Z" style="fill: #ffffff;"/>
    <path d="M109.6793,157.3455c14.2649-28.8821-10.5028-70.654-46.7975-78.9621-5.99,17.0453-6.59,33.933,2.6883,49.9327C75.3551,145.1887,90.6714,154.2831,109.6793,157.3455Z" style="fill: #ffffff;"/>
    <path d="M103.3284,321.2934c29.0466,15.94,72.2826,6.3877,83.1995-37.2835C158.618,267.0233,108.1928,289.62,103.3284,321.2934Z" style="fill: #ffffff;"/>
    <path d="M45.0517,212.1876c-22.7673,33.9589-8.1958,71.2582,24.7813,86.3306,3.3038,1.51,4.4739-.0839,5.7369-2.5021,9.8926-18.9411,8.3895-37.5712-1.834-55.7721A69.6966,69.6966,0,0,0,45.0517,212.1876Z" style="fill: #ffffff;"/>
    <path d="M140.7018,348.61c-28.1985-15.2338-74.0511-8.9066-87.28,27.05C78.4072,395.1478,124.361,391.8047,140.7018,348.61Z" style="fill: #ffffff;"/>
    <path d="M154.2066,142.4267c32.6438-11.0905,52.7112-50.3987,28.54-86.5449C151.4505,65.24,133.9922,118.18,154.2066,142.4267Z" style="fill: #ffffff;"/>
    <path d="M201.8789,207.4708c-34.3345-2.89-72.386,26.5634-67.4673,61.0242C171.0153,275.2432,205.8954,247.9614,201.8789,207.4708Z" style="fill: #ffffff;"/>
  </g>
</svg>
