<svg width="359" height="357" viewBox="0 0 359 357" fill="none" xmlns="http://www.w3.org/2000/svg">
<path d="M56.7842 285.253L56.7859 285.255C60.9173 289.948 65.3492 294.465 70.095 298.726C99.0504 324.889 137.463 340.781 179.502 340.781C265.778 340.781 336.415 273.926 342.43 189.178C342.763 185.179 342.879 181.229 342.879 177.407C342.879 174.245 342.803 170.923 342.545 167.5C342.428 165.266 342.269 163.005 342.015 160.65C341.303 153.496 340.116 146.554 338.515 139.781V139.698L338.099 138.029C335.684 128.328 332.423 118.974 328.346 110.012C320.233 92.046 308.933 75.8316 295.19 62.0869C294.214 61.1063 292.997 59.8897 291.674 58.692C286.076 53.3481 280.105 48.4681 273.892 44.048L273.879 44.039L273.867 44.0301C247.213 25.1587 214.61 14.0238 179.494 14.0238C104.617 14.0238 41.5274 64.4122 22.21 133.085L22.2037 133.108L22.1975 133.13C21.0639 137.212 20.0117 141.445 19.15 145.827L19.146 145.847L19.1421 145.867C18.2952 150.241 17.6486 154.598 17.167 159.042C16.4848 165.037 16.1218 171.193 16.1218 177.402C16.1218 190.383 17.6467 203.061 20.5443 215.201C21.5425 219.595 22.7635 223.812 24.0558 227.843L24.0627 227.864L24.0697 227.886C25.8857 233.487 28.0136 238.952 30.4097 244.271C30.9064 245.417 31.4684 246.672 32.1342 248.013C34.335 252.653 36.7822 257.125 39.2786 261.343L39.3131 261.401L39.3481 261.459C44.4565 269.903 50.2924 277.875 56.7842 285.253Z" stroke="#2F0E7F" stroke-width="28.0469"/>
<g filter="url(#filter0_f_37233_96471)">
<path fill-rule="evenodd" clip-rule="evenodd" d="M328.855 177.407C328.855 180.982 328.746 184.557 328.448 188.097C322.993 265.597 258.398 326.757 179.502 326.757C141.051 326.757 105.952 312.233 79.4796 288.306C75.164 284.432 71.1112 280.305 67.3125 275.989C61.3757 269.242 56.0305 261.942 51.3467 254.2C48.9896 250.218 46.7375 246.09 44.7484 241.884C44.1963 240.78 43.7144 239.707 43.2368 238.602C41.0242 233.7 39.0701 228.683 37.4095 223.561C36.1915 219.762 35.0874 215.928 34.2024 212.02C31.5472 200.922 30.1452 189.311 30.1452 177.402C30.1452 171.724 30.4782 166.085 31.1047 160.591C31.5473 156.498 32.1387 152.516 32.9099 148.533C33.6854 144.59 34.6449 140.716 35.7096 136.883C53.3709 74.0964 111.065 28.0473 179.494 28.0473C211.605 28.0473 241.394 38.221 265.763 55.4752C271.516 59.5675 277.01 64.0672 282.132 68.9701C283.201 69.9296 284.235 70.9592 285.265 71.9933C297.835 84.5636 308.162 99.3861 315.571 115.795C319.295 123.979 322.279 132.532 324.491 141.417V141.452C326.152 148.16 327.366 155.022 328.067 162.098C328.29 164.162 328.435 166.19 328.544 168.293V168.328C328.781 171.36 328.855 174.383 328.855 177.407Z" fill="url(#paint0_radial_37233_96471)"/>
</g>
<path fill-rule="evenodd" clip-rule="evenodd" d="M328.855 177.407C328.855 180.982 328.746 184.557 328.448 188.097C322.993 265.597 258.398 326.757 179.502 326.757C141.051 326.757 105.952 312.233 79.4796 288.306C75.164 284.432 71.1112 280.305 67.3125 275.989C61.3757 269.242 56.0305 261.942 51.3467 254.2C48.9896 250.218 46.7375 246.09 44.7484 241.884C44.1963 240.78 43.7144 239.707 43.2368 238.602C41.0242 233.7 39.0701 228.683 37.4095 223.561C36.1915 219.762 35.0874 215.928 34.2024 212.02C31.5472 200.922 30.1452 189.311 30.1452 177.402C30.1452 171.724 30.4782 166.085 31.1047 160.591C31.5473 156.498 32.1387 152.516 32.9099 148.533C33.6854 144.59 34.6449 140.716 35.7096 136.883C53.3709 74.0964 111.065 28.0473 179.494 28.0473C211.605 28.0473 241.394 38.221 265.763 55.4752C271.516 59.5675 277.01 64.0672 282.132 68.9701C283.201 69.9296 284.235 70.9592 285.265 71.9933C297.835 84.5636 308.162 99.3861 315.571 115.795C319.295 123.979 322.279 132.532 324.491 141.417V141.452C326.152 148.16 327.366 155.022 328.067 162.098C328.29 164.162 328.435 166.19 328.544 168.293V168.328C328.781 171.36 328.855 174.383 328.855 177.407Z" fill="url(#paint1_radial_37233_96471)"/>
<path fill-rule="evenodd" clip-rule="evenodd" d="M342.911 145.167L337.238 146.611L336.91 130.307L344.638 128.34L344.094 113.704L336.422 109.531L336.149 94.3212L320.112 85.5964L294.67 95.8574L294.94 113.846L292.32 114.514L290.707 116.062L288.722 117.667C288.58 117.621 288.437 117.575 288.29 117.53C288.184 117.498 288.076 117.466 287.966 117.435L287.588 117.057L285.249 116.878C284.624 116.799 283.964 116.747 283.301 116.723C283.084 116.716 282.857 116.716 282.531 116.719C282.275 116.716 282.009 116.719 281.735 116.727C281.537 116.732 281.334 116.74 281.128 116.75C280.961 116.752 280.802 116.759 280.689 116.768C280.484 116.783 280.272 116.805 280.043 116.836C279.833 116.857 279.621 116.879 279.408 116.905C279.055 116.947 278.696 116.996 278.332 117.052L278.195 117.073C278.072 117.091 277.949 117.111 277.825 117.131L277.581 117.173C277.077 117.263 276.596 117.357 276.138 117.457C275.762 117.539 275.401 117.623 275.053 117.712L274.886 117.755C273.754 118.048 272.624 118.391 271.502 118.785C271.283 118.864 271.071 118.949 270.911 119.021C270.105 119.321 269.241 119.651 268.395 120.037L268.045 120.204C267.732 120.355 267.424 120.516 267.121 120.68L266.537 120.984C266.046 121.231 265.56 121.482 265.098 121.755C265.013 121.804 264.928 121.855 264.844 121.907C264.56 122.082 264.283 122.266 264.007 122.45L263.418 122.833C263.032 123.075 262.647 123.321 262.33 123.552C262.208 123.639 262.086 123.731 261.967 123.828C261.782 123.967 261.599 124.11 261.418 124.256C261.197 124.434 260.978 124.616 260.759 124.799L260.275 125.196C260.069 125.361 259.863 125.528 259.657 125.703C259.544 125.799 259.431 125.898 259.318 126C258.863 126.414 258.43 126.856 257.998 127.301L257.574 127.732C257.297 128.003 257.023 128.276 256.757 128.573C256.467 128.896 256.188 129.231 255.914 129.571C255.734 129.794 255.556 130.02 255.379 130.246L255.088 130.608C254.872 130.867 254.658 131.129 254.445 131.419C253.718 132.413 253.027 133.452 252.382 134.53C250.884 137.056 249.599 139.776 248.546 142.653C247.315 141.386 245.919 140.32 244.36 139.458L234.528 134.109C234.01 133.829 233.461 133.57 232.845 133.313C232.678 133.244 232.507 133.18 232.284 133.098C231.889 132.95 231.494 132.812 231.067 132.684C230.857 132.62 230.646 132.564 230.441 132.51C230.043 132.403 229.634 132.313 229.139 132.215C228.996 132.187 228.851 132.159 228.687 132.131L228.261 132.058C228.042 132.027 227.817 132.005 227.574 131.987C227.153 131.941 226.728 131.905 226.31 131.884C226.026 131.87 225.739 131.863 225.421 131.861C225.201 131.862 224.978 131.863 224.753 131.868C224.556 131.872 224.358 131.878 224.157 131.887C223.939 131.888 223.725 131.896 223.573 131.908C223.407 131.919 223.234 131.937 223.058 131.961C222.774 131.988 222.485 132.021 222.173 132.061C221.979 132.087 221.775 132.115 221.559 132.147C221.355 132.173 221.152 132.204 220.948 132.239C220.197 132.37 219.497 132.518 218.725 132.711L218.604 132.742C218.344 132.809 218.09 132.882 217.828 132.961C217.549 133.045 217.261 133.137 216.953 133.236C216.74 133.297 216.529 133.362 216.341 133.429C215.705 133.652 215.076 133.899 214.467 134.166L213.851 134.447C213.469 134.631 213.097 134.828 212.726 135.029L212.61 135.092C212.378 135.206 212.149 135.325 211.942 135.444C211.478 135.712 211.022 135.996 210.578 136.293C210.348 136.446 210.122 136.603 209.899 136.762L209.778 136.85L209.74 136.878C209.709 136.9 209.678 136.924 209.648 136.948L209.642 136.952L207.897 136.001L181.834 142.635L181.951 148.087L175.088 144.352L148.973 151L148.978 151.113C148.618 151.105 148.236 151.122 147.861 151.141C147.724 151.144 147.589 151.149 147.468 151.158L147.039 151.196C146.419 151.252 145.768 151.336 145.102 151.447L144.661 151.526C144.166 151.615 143.693 151.71 143.237 151.813C142.956 151.876 142.682 151.942 142.414 152.011L142.256 152.049C141.277 152.303 140.291 152.605 139.295 152.959C139.067 153.041 138.843 153.131 138.539 153.26L138.333 153.339C137.756 153.559 137.184 153.782 136.675 154.016C136.539 154.076 136.408 154.14 136.277 154.21C135.939 154.372 135.609 154.546 135.28 154.722L134.777 154.987C134.377 155.193 133.978 155.403 133.578 155.639C133.213 155.855 132.858 156.089 132.507 156.326L132.04 156.63C131.716 156.835 131.393 157.042 131.086 157.264C130.972 157.346 130.862 157.431 130.751 157.521C130.578 157.651 130.408 157.784 130.238 157.92C130.025 158.091 129.814 158.265 129.603 158.441L129.187 158.784C128.895 159.018 128.605 159.255 128.323 159.51C127.893 159.898 127.48 160.313 127.07 160.732L126.693 161.109C126.445 161.35 126.202 161.592 125.949 161.867C125.485 162.376 125.04 162.921 124.599 163.47L124.372 163.744C124.177 163.972 123.985 164.202 123.785 164.464C123.353 165.035 122.933 165.618 122.526 166.218L122.039 143.107L106.023 134.386L80.5561 144.657L80.6906 151.368L71.6533 146.448C70.9565 146.07 70.1954 145.7 69.2531 145.283L68.8429 145.104C68.0598 144.774 67.2696 144.476 66.5089 144.224L66.054 144.081C65.2899 143.839 64.5145 143.623 63.8039 143.454L63.4453 143.365C62.9696 143.256 62.4799 143.157 61.9791 143.068C61.6767 143.014 61.3699 142.963 61.0598 142.915L60.8855 142.882C60.8119 142.869 60.7406 142.857 60.6721 142.847C60.5138 142.824 60.3526 142.805 60.2539 142.796C59.8404 142.742 59.4236 142.694 58.9854 142.652L58.8318 142.636C58.6405 142.617 58.4488 142.599 58.2471 142.583C57.7898 142.548 57.3248 142.524 56.8675 142.505L56.74 142.498L56.4992 142.486C56.4052 142.482 56.3115 142.479 56.2178 142.476C55.5464 142.458 54.8673 142.456 54.1334 142.473L53.9979 142.478C53.4061 142.495 52.808 142.524 52.1837 142.566L51.9191 142.581C51.776 142.593 51.6291 142.607 51.4341 142.628C51.2772 142.642 51.1199 142.655 50.9624 142.67C50.6242 142.701 50.2843 142.736 49.9424 142.775L49.1583 142.874C48.6919 142.936 48.2213 143.004 47.7429 143.08L46.9306 143.215C46.4342 143.302 45.9311 143.399 45.4333 143.5L44.7174 143.646C44.2832 143.74 43.8463 143.839 43.4084 143.942C43.1087 144.013 42.8086 144.086 42.5088 144.163L42.3238 144.211C41.9595 144.304 41.5962 144.403 41.234 144.506C40.7332 144.647 40.2347 144.797 39.7386 144.951C39.5486 145.01 39.3609 145.073 39.1723 145.136L39.1371 145.148L39.0037 145.195C38.348 145.407 37.6936 145.635 37.0607 145.87C36.9219 145.921 36.783 145.973 36.6442 146.025L36.4412 146.103L36.1642 146.211C35.5299 146.458 34.899 146.72 34.2871 146.984L34.1135 147.057C33.9151 147.141 33.7168 147.225 33.5522 147.3L33.2183 147.445C32.9032 147.59 32.5894 147.745 32.278 147.901L31.627 148.218C31.3212 148.365 31.0151 148.513 30.7104 148.669C30.2544 148.905 29.8014 149.156 29.3488 149.408L28.8099 149.705C28.5356 149.854 28.2619 150.003 27.9863 150.165C27.5236 150.435 27.0647 150.721 26.6054 151.008L26.5418 151.048L26.0758 151.338L26.0276 151.367L26.0055 151.38C25.7747 151.522 25.5439 151.663 25.3137 151.814C24.7276 152.196 24.1449 152.602 23.4906 153.062L23.2831 153.203C23.1242 153.311 22.966 153.418 22.8081 153.531L22.6435 153.648L22.2735 153.918C22.1324 154.022 21.9912 154.127 21.85 154.232C21.2619 154.671 20.6735 155.124 20.0774 155.598C16.718 158.292 13.6835 161.249 11.0735 164.367C8.35849 167.589 6.10611 170.937 4.40537 174.274C2.51026 177.922 1.19824 181.646 0.500079 185.367C-0.227186 189.31 -0.160949 193.175 0.697117 196.854C2.15299 203.099 5.1323 207.484 9.5541 209.892L19.3648 215.231L19.3715 215.234L19.3735 215.231L19.5652 215.337C19.6498 215.382 19.7321 215.425 19.8117 215.465C21.5687 216.357 23.5006 216.905 25.6366 217.114L26.4846 259.312L42.0415 267.779L68.035 261.162L67.2777 222.443C71.8483 220.825 75.9978 218.598 79.6552 215.799C80.4407 215.199 81.2028 214.58 81.9414 213.942L82.0019 216.967C82.097 220.836 82.4679 224.108 83.1357 226.971C84.7528 233.905 88.0382 238.916 92.841 241.83C93.1448 242.019 93.4495 242.196 93.77 242.372L103.484 247.659C107.816 250.059 112.805 250.562 118.337 249.154C122.015 248.218 125.429 246.666 128.487 244.542C131.403 242.516 133.973 240.006 136.17 237.048L137.93 238.005C142.983 240.808 148.713 241.424 154.989 239.824C160.545 238.409 165.252 235.437 168.96 231.01C169.405 230.484 169.84 229.932 170.266 229.358L172.215 230.418C176.347 232.697 181.131 233.169 186.428 231.823C190.049 230.9 193.387 229.355 196.372 227.216C196.591 227.056 196.811 226.894 197.029 226.727L199.036 227.82L225.1 221.185L224.797 207.347C224.953 207.454 225.11 207.559 225.269 207.661C225.635 207.896 226.009 208.118 226.388 208.325L235.343 213.198L235.781 213.635L236.795 213.973C241.237 216.182 246.524 216.527 252.525 215C258.401 213.504 263.257 210.358 266.959 205.655C267.172 205.385 267.382 205.108 267.588 204.825C267.819 204.508 268.046 204.183 268.268 203.85L268.547 204.003C274.22 207.15 281.121 207.722 289.054 205.703C298.118 203.397 305.848 198.333 312.056 190.623L312.117 190.546C312.162 190.49 312.207 190.433 312.251 190.375L317.386 193.17C321.734 195.596 326.743 196.112 332.295 194.698C335.971 193.761 339.386 192.209 342.447 190.084C346.604 187.194 350.059 183.332 352.716 178.604L352.773 178.5C355.718 173.037 357.648 166.276 358.509 158.403L359 153.921L342.911 145.167ZM190.751 204.822L190.757 204.824C190.768 204.827 190.778 204.831 190.788 204.835L190.774 204.87L190.716 204.811C190.723 204.814 190.731 204.817 190.738 204.819L190.751 204.822ZM294.613 135.86L294.658 135.89L294.607 135.874L294.613 135.86Z" fill="url(#paint2_linear_37233_96471)"/>
<path d="M342.728 152.989L337.383 154.349C337.136 157.99 336.232 161.096 334.679 163.657C333.917 164.913 333.016 165.967 331.968 166.831C331.753 167.01 331.53 167.168 331.306 167.322C331.195 167.4 331.082 167.471 330.968 167.543C330.814 167.639 330.66 167.73 330.503 167.816C330.386 167.88 330.27 167.942 330.151 167.999C330.033 168.056 329.914 168.107 329.795 168.158C329.406 168.326 329.01 168.473 328.602 168.581C328.578 168.587 328.554 168.597 328.529 168.603C328.12 168.707 327.742 168.778 327.375 168.833C327.271 168.848 327.171 168.858 327.07 168.871C326.756 168.908 326.452 168.931 326.172 168.93C326.146 168.93 326.118 168.932 326.092 168.932C325.791 168.927 325.516 168.89 325.255 168.838C325.187 168.825 325.118 168.81 325.052 168.794C324.795 168.729 324.55 168.649 324.335 168.536C324.313 168.525 324.29 168.512 324.268 168.501L324.271 168.503C324.27 168.502 324.269 168.502 324.268 168.501L334.078 173.839C334.101 173.852 334.123 173.863 334.146 173.874C334.361 173.986 334.605 174.067 334.863 174.132C334.929 174.149 334.996 174.163 335.065 174.177C335.135 174.19 335.199 174.213 335.272 174.223C335.47 174.251 335.682 174.266 335.902 174.271C335.927 174.271 335.955 174.269 335.981 174.269C336.157 174.27 336.335 174.269 336.524 174.254C336.637 174.246 336.762 174.223 336.88 174.209C336.98 174.198 337.079 174.187 337.184 174.171C337.55 174.116 337.929 174.046 338.338 173.941C338.347 173.939 338.357 173.937 338.366 173.935C338.38 173.931 338.395 173.923 338.409 173.919C338.817 173.811 339.213 173.665 339.602 173.496C339.653 173.474 339.708 173.464 339.76 173.44C339.827 173.41 339.891 173.37 339.958 173.337C340.077 173.279 340.193 173.219 340.31 173.155C340.467 173.07 340.621 172.978 340.775 172.881C340.888 172.81 341.001 172.738 341.113 172.661C341.171 172.621 341.23 172.588 341.287 172.547C341.452 172.427 341.615 172.302 341.776 172.17C342.823 171.305 343.724 170.25 344.486 168.995C346.039 166.435 346.944 163.329 347.19 159.688L352.535 158.327L342.728 152.989Z" fill="#5313BA"/>
<path d="M314.177 176.98C314.131 176.785 314.091 176.569 314.056 176.372L309.911 174.116C310.906 172.49 312.003 170.579 313.207 168.34L312.469 130.43L308.155 128.083L308.103 126.108L312.269 125.048L311.989 106.365L330.213 99.0152L320.402 93.6768L302.179 101.027L302.459 119.71L298.293 120.77L298.435 126.167L302.726 128.503L303.398 163.003C301.933 165.726 300.618 167.989 299.465 169.809C298.301 171.621 297.044 173.26 295.673 174.712C295.173 175.248 294.652 175.748 294.121 176.229C293.97 176.365 293.815 176.497 293.66 176.63C293.239 176.993 292.809 177.338 292.367 177.667C292.225 177.774 292.086 177.885 291.942 177.987C291.38 178.388 290.805 178.766 290.211 179.114C290.101 179.178 289.987 179.234 289.877 179.296C289.38 179.577 288.872 179.839 288.354 180.084C288.155 180.179 287.952 180.27 287.749 180.359C287.34 180.538 286.925 180.704 286.503 180.861C286.3 180.936 286.1 181.016 285.894 181.086C285.357 181.27 284.809 181.437 284.252 181.586C284.144 181.615 284.041 181.651 283.933 181.679C283.469 181.797 283.025 181.889 282.592 181.967C282.469 181.989 282.349 182.007 282.229 182.026C281.899 182.079 281.578 182.118 281.268 182.146C281.165 182.155 281.058 182.169 280.956 182.175C280.672 182.193 280.398 182.199 280.131 182.197C280.069 182.196 280.003 182.201 279.942 182.199C279.619 182.19 279.309 182.163 279.01 182.123C278.951 182.115 278.897 182.1 278.839 182.091C278.548 182.044 278.272 181.982 278.006 181.903C277.922 181.878 277.839 181.854 277.757 181.826C277.455 181.723 277.162 181.606 276.893 181.459H276.894C276.894 181.459 276.894 181.459 276.893 181.459L286.704 186.798C286.973 186.943 287.264 187.06 287.567 187.163C287.648 187.191 287.732 187.216 287.817 187.24C288.082 187.318 288.359 187.382 288.649 187.429C288.692 187.435 288.728 187.45 288.771 187.457C288.787 187.459 288.804 187.459 288.819 187.461C289.118 187.503 289.428 187.528 289.752 187.537C289.813 187.54 289.882 187.534 289.944 187.535C290.211 187.537 290.483 187.532 290.766 187.514C290.801 187.511 290.831 187.514 290.866 187.511C290.934 187.507 291.009 187.491 291.078 187.485C291.389 187.457 291.708 187.417 292.038 187.365C292.159 187.346 292.279 187.328 292.403 187.305C292.836 187.227 293.278 187.136 293.743 187.017C293.772 187.009 293.8 187.003 293.829 186.995C293.911 186.974 293.987 186.944 294.068 186.922C294.623 186.773 295.169 186.607 295.704 186.425C295.91 186.354 296.111 186.276 296.314 186.199C296.735 186.042 297.151 185.875 297.56 185.697C297.671 185.649 297.787 185.611 297.897 185.562C297.988 185.52 298.073 185.466 298.163 185.424C298.681 185.178 299.19 184.915 299.689 184.634C299.799 184.572 299.912 184.516 300.021 184.452C300.613 184.104 301.189 183.726 301.752 183.325C301.797 183.293 301.846 183.267 301.891 183.234C301.989 183.164 302.079 183.079 302.177 183.006C302.617 182.676 303.048 182.33 303.47 181.967C303.623 181.835 303.778 181.704 303.929 181.567C304.461 181.085 304.982 180.586 305.481 180.05C306.011 179.488 306.52 178.89 307.017 178.272C308.12 179.994 309.466 181.346 311.064 182.32C311.259 182.442 311.456 182.556 311.656 182.665L321.467 188.003C321.268 187.895 321.069 187.779 320.874 187.658C317.604 185.666 315.372 182.109 314.177 176.98Z" fill="#5313BA"/>
<path d="M320.784 115.044L330.594 120.382L338.231 118.439L328.421 113.1L320.784 115.044Z" fill="#5313BA"/>
<path d="M266.956 193.349L261.745 190.514C261.83 190.36 261.919 190.215 261.998 190.053C262.608 188.847 263.14 187.175 263.613 185.033C262.873 181.943 262.455 178.967 262.228 175.622C261.992 172.279 262.016 168.87 262.311 165.393C262.634 161.506 263.321 157.733 264.37 154.063C265.428 150.391 266.866 147.025 268.689 143.952C269.226 143.055 269.795 142.2 270.395 141.383C270.595 141.11 270.818 140.866 271.026 140.602C271.438 140.076 271.846 139.545 272.286 139.054C272.551 138.76 272.841 138.496 273.116 138.215C273.527 137.793 273.931 137.36 274.365 136.967C274.674 136.687 275.008 136.438 275.329 136.172C275.759 135.816 276.18 135.45 276.631 135.12C277.048 134.815 277.489 134.543 277.924 134.261C278.289 134.023 278.642 133.77 279.02 133.548C279.478 133.279 279.963 133.045 280.44 132.8C280.824 132.602 281.195 132.387 281.59 132.206C281.893 132.067 282.217 131.955 282.526 131.825C282.622 131.906 282.717 131.992 282.805 132.09C283.49 132.875 284.025 134.12 284.423 135.823C285.027 138.411 285.123 141.068 284.707 143.803C284.29 146.539 283.448 149.124 282.176 151.572C280.892 153.971 279.271 156.065 277.32 157.84C276.794 158.32 276.253 158.757 275.7 159.163C275.371 159.404 275.033 159.62 274.694 159.835C274.527 159.942 274.365 160.061 274.197 160.16C273.68 160.465 273.154 160.743 272.616 160.988C272.058 161.243 271.488 161.466 270.908 161.657L280.719 166.996C281.299 166.804 281.868 166.581 282.426 166.327H282.427C282.965 166.081 283.491 165.803 284.007 165.499C284.178 165.399 284.34 165.279 284.508 165.171C284.811 164.979 285.116 164.796 285.41 164.583C285.444 164.558 285.475 164.527 285.51 164.502C286.064 164.097 286.605 163.66 287.13 163.178C289.082 161.403 290.704 159.31 291.987 156.911C293.26 154.462 294.1 151.877 294.517 149.142C294.934 146.406 294.838 143.751 294.234 141.161C293.837 139.458 293.3 138.213 292.616 137.429C292.408 137.197 292.18 137.013 291.93 136.877L282.592 131.797C282.983 131.633 283.371 131.465 283.773 131.316C283.946 131.252 284.107 131.172 284.282 131.111C285.228 130.778 286.203 130.482 287.208 130.227C287.924 130.044 288.613 129.903 289.286 129.782C289.489 129.746 289.685 129.718 289.884 129.688C290.365 129.614 290.835 129.554 291.294 129.513C291.498 129.495 291.703 129.474 291.902 129.462C292.288 129.439 292.664 129.433 293.034 129.434C293.212 129.434 293.395 129.428 293.569 129.434C294.087 129.452 294.59 129.492 295.073 129.56C295.089 129.562 295.105 129.562 295.121 129.564C295.131 129.566 295.141 129.569 295.151 129.57C295.548 129.628 295.929 129.708 296.301 129.8C296.415 129.828 296.526 129.86 296.638 129.892C296.915 129.969 297.185 130.056 297.45 130.153C297.555 130.192 297.663 130.229 297.766 130.27C298.115 130.412 298.456 130.565 298.781 130.741L288.97 125.403C288.645 125.226 288.305 125.073 287.955 124.932C287.852 124.891 287.744 124.852 287.639 124.814C287.376 124.718 287.106 124.631 286.828 124.553C286.716 124.522 286.605 124.489 286.491 124.461C286.117 124.37 285.736 124.29 285.341 124.232C285.331 124.231 285.321 124.227 285.311 124.226C285.309 124.226 285.307 124.225 285.306 124.225C285.293 124.223 285.277 124.224 285.262 124.222C284.779 124.154 284.276 124.115 283.759 124.096C283.585 124.09 283.401 124.097 283.224 124.096C282.853 124.095 282.478 124.101 282.091 124.124C282.007 124.13 281.931 124.124 281.846 124.13C281.73 124.139 281.603 124.163 281.486 124.175C281.027 124.216 280.556 124.274 280.073 124.349C279.875 124.38 279.679 124.408 279.476 124.443C278.802 124.564 278.114 124.706 277.397 124.888C277.358 124.898 277.319 124.909 277.28 124.919C276.316 125.167 275.38 125.453 274.471 125.772C274.297 125.834 274.135 125.913 273.963 125.978C273.254 126.241 272.55 126.51 271.875 126.817C271.841 126.831 271.812 126.852 271.779 126.866C271.383 127.049 271.012 127.263 270.629 127.46C270.152 127.705 269.666 127.94 269.207 128.21C268.831 128.43 268.479 128.683 268.114 128.92C267.722 129.176 267.317 129.411 266.939 129.684C266.898 129.715 266.861 129.752 266.819 129.782C266.369 130.111 265.946 130.478 265.516 130.835C265.195 131.101 264.863 131.348 264.554 131.629C264.12 132.023 263.715 132.455 263.303 132.879C263.028 133.16 262.74 133.423 262.476 133.716C262.037 134.206 261.629 134.737 261.216 135.262C261.009 135.527 260.785 135.771 260.584 136.045C259.985 136.862 259.416 137.717 258.879 138.614C257.056 141.687 255.618 145.053 254.559 148.725C253.51 152.395 252.823 156.168 252.501 160.055C252.206 163.532 252.181 166.941 252.418 170.283C252.588 172.792 252.865 175.093 253.306 177.391C253.453 178.156 253.618 178.923 253.804 179.695C253.33 181.836 252.799 183.508 252.189 184.715C252.02 185.058 251.836 185.381 251.643 185.69C251.581 185.791 251.511 185.883 251.445 185.979C251.309 186.18 251.172 186.378 251.026 186.563C250.943 186.667 250.856 186.765 250.769 186.864C250.628 187.027 250.485 187.185 250.336 187.334C250.24 187.429 250.142 187.521 250.043 187.611C249.89 187.75 249.731 187.881 249.568 188.006C249.454 188.095 249.339 188.183 249.221 188.265C249.127 188.33 249.031 188.391 248.934 188.451C248.783 188.545 248.629 188.635 248.471 188.719C248.371 188.773 248.272 188.825 248.169 188.876C248.067 188.925 247.96 188.966 247.856 189.011C247.454 189.186 247.036 189.339 246.593 189.455C246.568 189.462 246.546 189.471 246.52 189.477C246.156 189.57 245.815 189.63 245.485 189.676C245.405 189.687 245.326 189.697 245.247 189.705C245.075 189.723 244.916 189.722 244.752 189.726C244.51 189.733 244.276 189.73 244.055 189.707C243.883 189.69 243.715 189.67 243.556 189.635C243.479 189.619 243.401 189.604 243.325 189.583C243.074 189.512 242.835 189.425 242.617 189.307L252.428 194.646C252.645 194.763 252.885 194.851 253.136 194.921C253.21 194.942 253.289 194.957 253.367 194.974C253.464 194.995 253.555 195.025 253.657 195.04C253.721 195.049 253.798 195.039 253.864 195.046C254.086 195.068 254.32 195.071 254.562 195.065C254.653 195.062 254.731 195.078 254.825 195.071C254.899 195.066 254.979 195.051 255.055 195.043C255.134 195.035 255.213 195.025 255.295 195.014C255.626 194.968 255.966 194.909 256.33 194.816C256.34 194.814 256.351 194.81 256.361 194.808C256.375 194.805 256.388 194.797 256.402 194.793C256.845 194.677 257.262 194.523 257.665 194.35C257.715 194.328 257.772 194.317 257.82 194.295C257.874 194.27 257.924 194.239 257.978 194.213C258.081 194.164 258.181 194.11 258.28 194.056C258.438 193.972 258.593 193.882 258.743 193.788C258.84 193.728 258.935 193.666 259.029 193.602C259.083 193.565 259.141 193.534 259.194 193.495C259.258 193.449 259.314 193.39 259.376 193.342C259.539 193.217 259.698 193.086 259.851 192.947C259.951 192.857 260.049 192.765 260.144 192.67C260.294 192.521 260.438 192.363 260.578 192.2C260.621 192.149 260.671 192.105 260.714 192.053C261.349 192.566 262.005 193.042 262.71 193.438L272.521 198.776C270.32 197.546 268.463 195.729 266.956 193.349Z" fill="#5313BA"/>
<path d="M219.451 153.288C219.604 153.069 219.756 152.844 219.914 152.634C220.026 152.485 220.142 152.346 220.255 152.2C220.41 152.002 220.564 151.8 220.723 151.611C220.844 151.466 220.969 151.333 221.093 151.194C221.251 151.016 221.405 150.832 221.567 150.662C221.695 150.525 221.83 150.398 221.962 150.266C222.122 150.105 222.281 149.939 222.446 149.785C222.583 149.656 222.725 149.539 222.864 149.416C223.029 149.27 223.191 149.12 223.359 148.982C223.504 148.863 223.653 148.754 223.799 148.641C223.98 148.501 224.158 148.355 224.343 148.223C224.825 147.878 225.324 147.558 225.838 147.26C226.01 147.16 226.194 147.079 226.37 146.985C226.72 146.798 227.066 146.605 227.43 146.438C227.968 146.193 228.521 145.97 229.091 145.769C229.237 145.718 229.391 145.681 229.539 145.632C229.982 145.488 230.425 145.345 230.886 145.227C231.481 145.076 232.061 144.956 232.63 144.856C232.814 144.823 232.991 144.804 233.172 144.777C233.555 144.721 233.936 144.671 234.308 144.639C234.515 144.621 234.716 144.611 234.919 144.6C235.252 144.584 235.58 144.575 235.903 144.578C236.104 144.58 236.304 144.584 236.501 144.594C236.824 144.609 237.14 144.639 237.454 144.674C237.65 144.697 237.848 144.715 238.041 144.746C238.184 144.769 238.325 144.798 238.466 144.826C238.73 144.877 238.991 144.935 239.248 145.004C239.389 145.041 239.529 145.079 239.668 145.12C239.931 145.2 240.189 145.29 240.443 145.386C240.561 145.431 240.681 145.471 240.796 145.518C241.161 145.669 241.518 145.834 241.864 146.021L232.054 140.683C231.708 140.496 231.349 140.331 230.986 140.18C230.871 140.132 230.752 140.091 230.634 140.048C230.379 139.951 230.121 139.86 229.858 139.781C229.719 139.739 229.579 139.701 229.437 139.664C229.181 139.597 228.92 139.538 228.655 139.486C228.514 139.458 228.374 139.43 228.231 139.407C228.159 139.395 228.092 139.378 228.02 139.367C227.898 139.35 227.768 139.349 227.644 139.335C227.332 139.299 227.016 139.27 226.692 139.254C226.495 139.245 226.295 139.241 226.094 139.239C225.771 139.236 225.441 139.244 225.11 139.261C224.986 139.268 224.87 139.26 224.746 139.27C224.666 139.276 224.58 139.293 224.499 139.3C224.126 139.333 223.745 139.382 223.361 139.439C223.18 139.466 223.004 139.485 222.822 139.516C222.251 139.616 221.672 139.736 221.077 139.887C221.052 139.894 221.028 139.9 221.003 139.906C220.567 140.018 220.149 140.156 219.73 140.293C219.582 140.341 219.427 140.378 219.282 140.43C218.716 140.628 218.166 140.849 217.632 141.093C217.629 141.095 217.626 141.096 217.621 141.099C217.245 141.271 216.886 141.47 216.525 141.663C216.362 141.751 216.19 141.827 216.03 141.919C215.515 142.217 215.017 142.537 214.535 142.883C214.51 142.901 214.485 142.918 214.46 142.938C214.302 143.052 214.15 143.178 213.995 143.298C213.847 143.413 213.697 143.522 213.551 143.642C213.385 143.779 213.224 143.928 213.061 144.072C212.92 144.197 212.777 144.316 212.638 144.447C212.478 144.597 212.322 144.76 212.165 144.918C212.029 145.053 211.892 145.183 211.759 145.324C211.617 145.476 211.48 145.637 211.34 145.794L207.721 143.824L189.393 148.489L190.332 191.956C190.135 195.811 189.479 198.927 188.342 201.299C188.147 201.713 187.94 202.096 187.724 202.463C187.658 202.576 187.589 202.68 187.521 202.788C187.364 203.037 187.203 203.275 187.036 203.499C186.956 203.608 186.874 203.716 186.791 203.819C186.614 204.038 186.431 204.243 186.244 204.438C186.171 204.513 186.102 204.594 186.028 204.666C185.766 204.919 185.495 205.152 185.213 205.358C184.994 205.519 184.768 205.663 184.536 205.795C184.474 205.831 184.408 205.862 184.344 205.895C184.189 205.977 184.032 206.05 183.873 206.119C183.564 206.254 183.248 206.369 182.918 206.457C182.893 206.463 182.869 206.474 182.842 206.481C182.481 206.573 182.14 206.631 181.807 206.674C181.737 206.683 181.668 206.693 181.599 206.7C181.283 206.731 180.98 206.741 180.691 206.728C180.64 206.725 180.591 206.719 180.542 206.715C180.306 206.697 180.084 206.656 179.867 206.607C179.781 206.587 179.692 206.572 179.609 206.547C179.342 206.469 179.085 206.371 178.846 206.241C178.845 206.241 178.845 206.24 178.844 206.24L188.655 211.579C188.893 211.709 189.152 211.806 189.42 211.885C189.503 211.909 189.591 211.925 189.678 211.944C189.795 211.971 189.906 212.008 190.028 212.025C190.133 212.039 190.242 212.044 190.351 212.051C190.401 212.056 190.45 212.062 190.501 212.064C190.585 212.068 190.672 212.069 190.758 212.069L190.841 215.97L200.651 221.308L200.494 213.915L194.823 210.829C194.881 210.789 194.943 210.755 195.001 210.712C195.009 210.707 195.016 210.7 195.023 210.695C195.305 210.488 195.576 210.255 195.838 210.002C195.912 209.93 195.982 209.85 196.055 209.775C196.242 209.58 196.426 209.374 196.603 209.155C196.686 209.052 196.766 208.945 196.847 208.837C197.014 208.611 197.174 208.373 197.331 208.124C197.399 208.015 197.469 207.911 197.536 207.798C197.751 207.431 197.96 207.048 198.154 206.634C199.29 204.261 199.946 201.146 200.144 197.291L199.205 153.824L208.913 151.353L217.705 156.137C217.934 155.711 218.167 155.296 218.408 154.895C218.486 154.763 218.57 154.641 218.65 154.512C218.725 154.391 218.801 154.271 218.877 154.151C220.078 154.99 220.966 156.62 221.535 159.06C221.953 160.851 222.213 163.022 222.299 165.589C222.396 168.152 222.441 171.595 222.446 175.923C222.422 180.167 222.471 183.63 222.59 186.29C222.708 188.951 222.989 191.251 223.436 193.168C224.377 197.206 226.244 200.248 229.049 202.267C229.456 202.566 229.881 202.836 230.323 203.076L240.133 208.414C239.693 208.174 239.268 207.904 238.859 207.605C236.054 205.587 234.187 202.546 233.246 198.506C232.799 196.589 232.519 194.288 232.4 191.628C232.281 188.968 232.232 185.505 232.257 181.262C232.251 176.933 232.206 173.491 232.11 170.927C232.024 168.361 231.764 166.189 231.346 164.399C231.113 163.397 230.826 162.529 230.485 161.798C229.918 160.577 229.203 159.733 228.339 159.263L218.894 154.124C218.978 153.993 219.059 153.856 219.144 153.729C219.24 153.577 219.347 153.436 219.451 153.288Z" fill="#5313BA"/>
<path d="M172.041 221.124C171.357 220.04 170.761 218.794 170.252 217.385L165.106 214.584C166.651 211.949 167.401 208.915 167.34 205.465L166.692 175.017C166.595 174.599 166.384 174.136 166.069 173.619C165.754 173.101 165.37 172.642 164.924 172.219C164.728 172.074 164.526 171.944 164.319 171.83L154.509 166.492C154.716 166.605 154.919 166.735 155.114 166.881C155.561 167.303 155.944 167.763 156.259 168.28C156.574 168.798 156.784 169.26 156.882 169.679L157.53 200.127C157.593 203.781 156.76 206.972 155.024 209.714C154.242 210.883 153.382 211.853 152.444 212.619C152.243 212.786 152.04 212.935 151.837 213.077C151.737 213.147 151.638 213.209 151.538 213.273C151.41 213.355 151.281 213.436 151.152 213.509C151.052 213.566 150.95 213.617 150.848 213.668C150.737 213.724 150.625 213.775 150.514 213.823C150.231 213.946 149.949 214.051 149.665 214.126C149.645 214.132 149.625 214.14 149.605 214.146C149.235 214.24 148.88 214.306 148.534 214.358C148.431 214.374 148.331 214.383 148.23 214.395C147.916 214.431 147.607 214.46 147.313 214.462C147.068 214.463 146.825 214.423 146.584 214.368C146.512 214.352 146.44 214.337 146.369 214.315C146.117 214.241 145.867 214.147 145.62 214.014L155.431 219.352C155.677 219.487 155.927 219.58 156.178 219.654C156.25 219.675 156.322 219.69 156.394 219.706C156.478 219.725 156.561 219.756 156.647 219.767C156.805 219.789 156.964 219.8 157.124 219.799C157.301 219.798 157.482 219.791 157.666 219.777C157.787 219.768 157.916 219.746 158.041 219.731C158.141 219.72 158.24 219.71 158.342 219.694C158.689 219.642 159.045 219.577 159.414 219.482C159.421 219.481 159.427 219.479 159.433 219.478C159.447 219.474 159.459 219.468 159.473 219.463C159.757 219.387 160.041 219.282 160.323 219.159C160.361 219.143 160.399 219.136 160.436 219.119C160.509 219.086 160.583 219.041 160.656 219.005C160.758 218.953 160.86 218.903 160.962 218.845C161.091 218.772 161.22 218.691 161.348 218.609C161.448 218.545 161.547 218.484 161.645 218.414C161.681 218.389 161.718 218.369 161.754 218.343C161.921 218.222 162.087 218.093 162.253 217.955C162.571 217.696 162.877 217.404 163.177 217.097C164.111 218.256 165.17 219.18 166.365 219.846L176.176 225.185C174.559 224.285 173.179 222.93 172.041 221.124Z" fill="#5313BA"/>
<path d="M138.095 229.769C137.142 228.74 136.282 227.556 135.512 226.226L130.502 223.5C130.512 223.483 130.523 223.468 130.533 223.452C131.406 222.013 132.063 220.393 132.527 218.604C132.447 218.305 132.36 218.018 132.287 217.707C131.585 214.699 131.148 211.459 130.969 207.969C130.8 204.476 130.903 200.964 131.303 197.409C132.25 189.393 134.495 182.553 138.036 176.878C138.56 176.052 139.108 175.268 139.677 174.519C139.865 174.27 140.07 174.051 140.264 173.811C140.654 173.328 141.043 172.839 141.453 172.39C141.697 172.123 141.958 171.886 142.209 171.63C142.59 171.244 142.967 170.849 143.365 170.491C143.646 170.236 143.944 170.011 144.234 169.771C144.623 169.448 145.009 169.119 145.413 168.822C145.765 168.563 146.134 168.334 146.498 168.094C146.845 167.864 147.186 167.624 147.543 167.412C147.919 167.189 148.312 166.997 148.7 166.794C149.068 166.6 149.429 166.396 149.808 166.22C150.354 165.966 150.92 165.743 151.487 165.525C151.694 165.446 151.892 165.352 152.102 165.278C152.904 164.993 153.727 164.74 154.571 164.525C155.203 164.364 155.802 164.24 156.383 164.135C156.499 164.113 156.615 164.091 156.73 164.072C156.791 164.062 156.845 164.06 156.906 164.05L166.619 169.335L166.393 162.175L184.721 157.51L174.911 152.172L156.583 156.837L156.714 160.986L153.832 159.418C153.545 159.263 153.238 159.122 152.91 158.999C152.659 158.905 152.395 158.823 152.122 158.755C152.026 158.731 151.92 158.717 151.822 158.696C151.639 158.656 151.457 158.615 151.265 158.587C151.26 158.586 151.257 158.585 151.252 158.585C151.232 158.581 151.21 158.582 151.19 158.579C150.853 158.533 150.5 158.506 150.135 158.494C150.02 158.489 149.9 158.489 149.781 158.488C149.48 158.486 149.169 158.494 148.849 158.513C148.77 158.517 148.701 158.513 148.622 158.519C148.589 158.521 148.55 158.53 148.515 158.532C148.006 158.572 147.473 158.641 146.918 158.733C146.805 158.752 146.689 158.773 146.575 158.794C145.992 158.9 145.393 159.024 144.761 159.185C144.728 159.193 144.697 159.202 144.665 159.21C143.853 159.419 143.063 159.664 142.291 159.938C142.082 160.013 141.883 160.107 141.676 160.186C141.163 160.382 140.647 160.574 140.152 160.8C140.099 160.825 140.05 160.856 139.997 160.881C139.619 161.057 139.258 161.261 138.89 161.453C138.503 161.657 138.108 161.851 137.732 162.073C137.374 162.285 137.034 162.525 136.686 162.753C136.375 162.958 136.052 163.144 135.749 163.363C135.699 163.4 135.653 163.445 135.603 163.481C135.198 163.778 134.814 164.109 134.424 164.431C134.134 164.67 133.835 164.897 133.553 165.15C133.156 165.507 132.782 165.9 132.402 166.285C132.15 166.542 131.887 166.78 131.641 167.048C131.232 167.495 130.847 167.981 130.458 168.461C130.262 168.703 130.056 168.926 129.865 169.177C129.296 169.926 128.749 170.71 128.226 171.536C124.685 177.211 122.439 184.052 121.492 192.067C121.092 195.623 120.989 199.134 121.159 202.627C121.338 206.118 121.776 209.357 122.476 212.365C122.549 212.676 122.637 212.963 122.716 213.262C122.252 215.051 121.596 216.671 120.723 218.11C119.961 219.366 119.06 220.421 118.012 221.285C117.797 221.463 117.574 221.621 117.35 221.776C117.239 221.854 117.126 221.925 117.012 221.997C116.859 222.094 116.704 222.184 116.547 222.271C116.431 222.334 116.314 222.396 116.196 222.453C116.078 222.51 115.959 222.561 115.839 222.612C115.45 222.78 115.054 222.927 114.646 223.036C114.622 223.043 114.599 223.053 114.575 223.058C114.166 223.163 113.786 223.233 113.421 223.288C113.317 223.304 113.218 223.314 113.117 223.326C112.803 223.363 112.498 223.387 112.216 223.386C112.192 223.386 112.164 223.388 112.139 223.388C111.838 223.382 111.562 223.345 111.301 223.294C111.233 223.28 111.164 223.266 111.099 223.249C110.842 223.184 110.597 223.104 110.382 222.991C110.36 222.98 110.337 222.968 110.315 222.955L120.125 228.294C120.148 228.306 120.17 228.317 120.193 228.329C120.408 228.442 120.652 228.522 120.91 228.587C120.976 228.604 121.044 228.619 121.113 228.632C121.183 228.645 121.247 228.668 121.32 228.678C121.518 228.706 121.73 228.722 121.95 228.726C121.975 228.726 122.003 228.724 122.029 228.724C122.205 228.725 122.383 228.724 122.572 228.709C122.685 228.701 122.81 228.678 122.928 228.665C123.029 228.653 123.128 228.642 123.233 228.626C123.598 228.572 123.978 228.501 124.387 228.397C124.396 228.394 124.406 228.392 124.415 228.39C124.429 228.387 124.444 228.379 124.459 228.374C124.866 228.267 125.262 228.12 125.651 227.952C125.702 227.929 125.757 227.919 125.809 227.896C125.876 227.866 125.94 227.825 126.007 227.793C126.126 227.734 126.243 227.674 126.359 227.61C126.516 227.525 126.671 227.433 126.824 227.337C126.937 227.265 127.05 227.193 127.161 227.116C127.219 227.077 127.278 227.043 127.335 227.003C127.501 226.883 127.663 226.757 127.824 226.625C128.311 226.223 128.764 225.775 129.188 225.289C129.894 225.944 130.628 226.55 131.428 227.049C131.678 227.203 131.93 227.35 132.186 227.489L141.997 232.827C141.741 232.688 141.489 232.542 141.239 232.387C140.094 231.674 139.047 230.799 138.095 229.769Z" fill="#5313BA"/>
<path d="M100.21 231.439C99.645 229.016 99.3312 226.137 99.2494 222.796L97.8969 155.153L116.121 147.803L106.31 142.465L88.0864 149.813L89.4389 217.457C89.5218 220.797 89.8344 223.677 90.3992 226.1C91.5948 231.229 93.827 234.785 97.1069 236.775C97.3019 236.898 97.4991 237.012 97.6997 237.122L107.51 242.46C107.31 242.351 107.112 242.236 106.917 242.115C103.638 240.125 101.405 236.568 100.21 231.439Z" fill="#5313BA"/>
<path d="M69.4849 164.571C68.9762 164.185 68.4428 163.842 67.8859 163.539L58.0754 158.2C58.6323 158.503 59.1657 158.847 59.6744 159.232C62.8691 161.822 65.0441 165.619 66.2129 170.632C67.32 175.382 67.4623 180.294 66.6264 185.364C65.7927 190.66 64.0872 195.29 61.4998 199.258C61.1043 199.869 60.6964 200.444 60.2795 200.996C60.1462 201.173 60.0072 201.336 59.8716 201.507C59.5814 201.872 59.2878 202.228 58.9875 202.566C58.8262 202.747 58.6614 202.922 58.4967 203.096C58.2065 203.401 57.9107 203.695 57.6115 203.975C57.4434 204.133 57.2742 204.291 57.1027 204.441C56.7755 204.727 56.4405 204.994 56.1032 205.25C55.9519 205.365 55.804 205.489 55.6516 205.598C55.3928 205.782 55.1272 205.945 54.8627 206.112C54.6677 206.235 54.475 206.369 54.2767 206.483C53.9943 206.645 53.7041 206.787 53.415 206.931C53.2256 207.025 53.0407 207.132 52.848 207.218C52.3516 207.442 51.8462 207.644 51.3307 207.815L61.1412 213.154C61.6567 212.982 62.1621 212.781 62.6585 212.556C62.6786 212.547 62.6999 212.542 62.719 212.533C62.8915 212.454 63.0563 212.355 63.2266 212.27C63.5146 212.125 63.8048 211.985 64.0861 211.822C64.2855 211.708 64.4783 211.575 64.6732 211.45C64.9377 211.283 65.2033 211.12 65.4621 210.936C65.5002 210.909 65.5406 210.888 65.5775 210.86C65.6918 210.777 65.7983 210.676 65.9115 210.59C66.2499 210.332 66.5849 210.065 66.9132 209.779C67.0847 209.63 67.2528 209.47 67.4209 209.314C67.7212 209.032 68.017 208.739 68.3083 208.433C68.4719 208.26 68.6367 208.087 68.798 207.905C69.0995 207.567 69.3942 207.208 69.6866 206.842C69.8211 206.672 69.9578 206.511 70.0911 206.335C70.508 205.783 70.917 205.208 71.3126 204.595C73.8999 200.627 75.6054 195.996 76.4391 190.701C77.2751 185.632 77.1328 180.719 76.0256 175.969C74.8558 170.957 72.6796 167.16 69.4849 164.571Z" fill="#5313BA"/>
<path d="M69.1588 153.014C68.5627 152.689 67.9486 152.399 67.3267 152.124C67.2012 152.068 67.0757 152.012 66.9491 151.958C66.3406 151.702 65.7209 151.466 65.0878 151.257C64.9735 151.219 64.857 151.185 64.7416 151.149C64.1398 150.959 63.528 150.787 62.9039 150.638C62.8254 150.619 62.7481 150.597 62.6685 150.579C61.9996 150.427 61.316 150.302 60.6224 150.197C60.5473 150.186 60.4767 150.167 60.4005 150.155C60.2963 150.141 60.1887 150.133 60.0845 150.12C59.7461 150.075 59.4032 150.037 59.0581 150.003C58.8519 149.983 58.6468 149.962 58.4395 149.945C58.0597 149.916 57.6753 149.895 57.2887 149.88C57.1128 149.872 56.9402 149.861 56.7632 149.856C56.1973 149.842 55.6258 149.838 55.0454 149.852C55.0084 149.853 54.9703 149.856 54.9333 149.857C54.3898 149.872 53.8396 149.899 53.2838 149.938C53.239 149.941 53.1953 149.941 53.1494 149.945C53.0071 149.955 52.8603 149.975 52.718 149.987C52.2921 150.023 51.8652 150.064 51.4327 150.114C51.2063 150.14 50.9777 150.17 50.7491 150.2C50.3413 150.254 49.93 150.313 49.5154 150.38C49.2823 150.417 49.0481 150.455 48.8128 150.495C48.3713 150.572 47.9253 150.659 47.4771 150.75C47.2709 150.792 47.067 150.83 46.8597 150.875C46.2041 151.016 45.543 151.168 44.8718 151.34C44.8191 151.353 44.7676 151.367 44.7149 151.38C43.9574 151.576 43.2044 151.795 42.4547 152.029C42.2374 152.097 42.0211 152.174 41.8037 152.244C41.2333 152.431 40.6641 152.627 40.0982 152.837C39.8394 152.933 39.5805 153.032 39.3217 153.132C38.7636 153.349 38.2067 153.58 37.6531 153.82C37.4335 153.915 37.2139 154.005 36.9954 154.103C36.9091 154.141 36.8228 154.175 36.7376 154.214C36.3533 154.389 35.9745 154.587 35.5924 154.773C35.2327 154.948 34.8719 155.115 34.5144 155.3C34.0438 155.542 33.5788 155.806 33.1115 156.065C32.772 156.254 32.4302 156.433 32.0929 156.629C31.6021 156.916 31.1158 157.224 30.6283 157.529C30.3191 157.721 30.0076 157.904 29.7005 158.105C29.1514 158.463 28.6069 158.845 28.0634 159.227C27.8225 159.397 27.5793 159.552 27.3395 159.726C27.3272 159.735 27.3148 159.743 27.3025 159.752C26.5305 160.311 25.7629 160.894 25.0009 161.5C22.0079 163.901 19.3096 166.516 16.9306 169.358C14.5405 172.194 12.5918 175.082 11.088 178.032C9.47664 181.133 8.39978 184.201 7.82941 187.244C7.26801 190.284 7.31171 193.191 7.96276 195.984C8.97014 200.304 10.8101 203.187 13.486 204.643L23.2965 209.981C20.6206 208.525 18.7807 205.642 17.7733 201.322C17.1222 198.529 17.0796 195.622 17.6399 192.582C18.2103 189.54 19.2871 186.472 20.8985 183.37C22.4023 180.42 24.3498 177.532 26.7411 174.697C29.1201 171.854 31.8173 169.24 34.8114 166.838C35.5857 166.222 36.3656 165.631 37.1511 165.064C37.3909 164.891 37.6341 164.735 37.875 164.566C38.4196 164.185 38.9631 163.802 39.5122 163.443C39.8214 163.241 40.1341 163.059 40.4456 162.864C40.9308 162.56 41.4149 162.253 41.9045 161.967C42.2452 161.769 42.5903 161.589 42.9321 161.398C43.396 161.141 43.8588 160.879 44.3261 160.638C44.6858 160.453 45.0488 160.285 45.4097 160.109C45.8758 159.883 46.3397 159.651 46.8092 159.44C47.0278 159.343 47.2463 159.252 47.4659 159.158C48.0217 158.918 48.5786 158.687 49.1389 158.469C49.3955 158.369 49.6532 158.271 49.911 158.175C50.4791 157.965 51.0494 157.767 51.6221 157.58C51.8372 157.51 52.0512 157.435 52.2675 157.366C53.0687 157.116 53.8744 156.883 54.6857 156.677C55.3558 156.507 56.0169 156.354 56.6713 156.213C56.882 156.167 57.0881 156.129 57.2977 156.087C57.7437 155.996 58.1863 155.911 58.6244 155.833C58.862 155.792 59.0973 155.754 59.3326 155.717C59.745 155.651 60.1529 155.591 60.5596 155.539C60.7905 155.508 61.0202 155.478 61.2488 155.451C61.6791 155.402 62.1038 155.362 62.5262 155.326C62.7178 155.31 62.9106 155.29 63.1 155.276C63.6502 155.238 64.1936 155.211 64.7315 155.197C64.7741 155.196 64.8189 155.192 64.8615 155.191C65.4408 155.178 66.0112 155.181 66.5771 155.196C66.7552 155.2 66.93 155.213 67.106 155.219C67.4926 155.235 67.8769 155.255 68.2568 155.284C68.463 155.3 68.6669 155.321 68.872 155.341C69.2171 155.375 69.5611 155.413 69.9006 155.458C70.0811 155.481 70.2603 155.508 70.4385 155.535C71.131 155.641 71.8146 155.764 72.4824 155.916C72.5631 155.934 72.6404 155.958 72.7211 155.977C73.3441 156.126 73.9548 156.296 74.5566 156.487C74.672 156.522 74.7885 156.556 74.9028 156.594C75.5359 156.804 76.1556 157.039 76.7641 157.296C76.8907 157.349 77.0162 157.405 77.1417 157.461C77.7636 157.736 78.3777 158.027 78.9738 158.351L69.1588 153.014Z" fill="#5313BA"/>
<path d="M60.1655 168.076L50.3549 162.737L32.1167 170.029L33.8446 255.93L43.6562 261.268L41.9283 175.367L60.1655 168.076Z" fill="#5313BA"/>
<path fill-rule="evenodd" clip-rule="evenodd" d="M344.49 168.994C346.043 166.433 346.947 163.327 347.194 159.686L352.543 158.318C351.771 165.372 350.111 171.248 347.572 175.957C345.401 179.819 342.649 182.902 339.326 185.212C336.911 186.888 334.252 188.09 331.353 188.829C327.293 189.862 323.802 189.472 320.878 187.649C317.607 185.656 315.375 182.099 314.18 176.971C314.135 176.776 314.094 176.56 314.059 176.362C312.184 180.356 310.019 183.937 307.516 187.081C302.242 193.629 295.77 197.885 288.114 199.833C281.859 201.425 276.667 201.066 272.526 198.769C270.323 197.537 268.466 195.72 266.959 193.34C265.771 196.849 264.245 199.794 262.396 202.142C259.615 205.675 256.011 208.005 251.584 209.132C246.326 210.471 242.081 209.963 238.857 207.598C236.052 205.579 234.185 202.538 233.244 198.499C232.797 196.582 232.517 194.281 232.398 191.621C232.279 188.961 232.23 185.498 232.254 181.255C232.249 176.926 232.204 173.484 232.108 170.92C232.021 168.354 231.761 166.182 231.344 164.392C230.323 160.011 228.285 158.21 225.221 158.99C223.065 159.54 221.341 161.194 220.057 163.944C218.978 166.302 218.305 169.432 218.03 173.348L218.978 216.638L200.65 221.303L200.493 213.909C198.542 217.447 196.092 220.287 193.148 222.419C190.85 224.066 188.297 225.241 185.484 225.957C181.878 226.875 178.776 226.613 176.179 225.181C173.59 223.736 171.611 221.137 170.254 217.378C168.644 221.408 166.743 224.717 164.544 227.318C161.724 230.685 158.226 232.896 154.049 233.958C149.196 235.193 144.928 234.671 141.24 232.382C138.951 230.955 137.055 228.88 135.513 226.22C135.112 227.255 134.687 228.246 134.227 229.196C134.026 229.611 133.819 230.018 133.604 230.418C131.432 234.281 128.689 237.361 125.366 239.671C122.951 241.347 120.292 242.549 117.392 243.288C113.333 244.321 109.842 243.931 106.919 242.108C103.639 240.118 101.407 236.561 100.211 231.432C99.646 229.01 99.3335 226.13 99.2506 222.79L97.8981 155.145L116.122 147.796L117.655 220.693C117.568 221.86 117.726 223.284 118.114 224.948C118.522 226.699 119.217 227.832 120.192 228.326C121.16 228.833 122.558 228.859 124.385 228.393C124.955 228.248 125.508 228.044 126.04 227.781C126.662 227.475 127.257 227.088 127.822 226.622C128.869 225.758 129.77 224.703 130.532 223.447C131.405 222.008 132.062 220.388 132.526 218.6C132.482 218.435 132.436 218.274 132.391 218.111C132.355 217.977 132.319 217.842 132.286 217.702C131.585 214.695 131.147 211.455 130.968 207.965C130.799 204.472 130.902 200.96 131.302 197.404C132.249 189.389 134.494 182.548 138.035 176.873C142.147 170.393 147.649 166.281 154.571 164.519C158.012 163.643 160.721 163.582 162.719 164.332C164.716 165.081 165.944 166.439 166.4 168.395L166.618 169.33L166.392 162.169L184.72 157.505L185.746 203.362C185.662 204.714 185.797 206.132 186.147 207.632C187.003 211.301 189.171 212.698 192.652 211.812C194.962 211.224 196.802 209.497 198.15 206.629C199.288 204.257 199.943 201.141 200.14 197.287L199.201 153.819L217.529 149.154L217.702 156.132C219.535 152.706 221.756 150.068 224.345 148.214C226.266 146.838 228.44 145.842 230.886 145.219C235.198 144.12 238.853 144.386 241.864 146.012C245.085 147.79 247.281 151.15 248.428 156.064C249.117 159.023 249.476 163.025 249.511 168.048C249.531 169.497 249.541 171.69 249.523 174.602C249.395 179.543 249.384 183.452 249.495 186.342C249.565 188.18 249.732 189.643 249.984 190.724C250.384 192.437 251.079 193.663 252.06 194.402C253.051 195.141 254.478 195.283 256.333 194.81C258.866 194.166 260.75 192.584 262.002 190.048C262.612 188.841 263.143 187.169 263.617 185.028C262.876 181.937 262.458 178.961 262.232 175.616C261.995 172.273 262.02 168.865 262.315 165.387C262.637 161.5 263.324 157.727 264.373 154.058C265.432 150.385 266.87 147.019 268.693 143.947C272.931 136.868 279.103 132.286 287.212 130.222C292.394 128.903 296.457 129.199 299.398 131.101C301.681 132.592 303.253 135.203 304.117 138.911C304.963 142.541 304.964 146.15 304.143 149.741C303.309 153.325 301.795 156.711 299.592 159.87C297.384 163 294.681 165.728 291.498 168.065C288.316 170.401 284.869 172.176 281.156 173.378C281.449 175.603 281.752 177.34 282.042 178.587C283.016 182.763 284.468 185.434 286.413 186.62C288.108 187.694 290.554 187.825 293.744 187.012C298.336 185.844 302.248 183.518 305.483 180.044C306.854 178.592 308.111 176.953 309.275 175.141C310.428 173.321 311.744 171.058 313.208 168.335L312.47 130.425L308.245 131.5L308.103 126.102L312.269 125.042L311.989 106.359L330.213 99.0089L330.597 120.378L338.234 118.435L338.434 123.818L330.798 125.761L331.612 166.239C331.535 167.404 331.684 168.83 332.072 170.494C332.48 172.245 333.174 173.378 334.149 173.872C335.117 174.379 336.516 174.405 338.342 173.94C339.58 173.625 340.731 173.032 341.779 172.168C342.827 171.304 343.728 170.25 344.49 168.994ZM162.254 217.954C163.192 217.189 164.051 216.218 164.834 215.05C166.569 212.309 167.403 209.117 167.34 205.463L166.693 175.015C166.632 174.755 166.528 174.479 166.382 174.183C166.293 174.002 166.189 173.813 166.07 173.617C165.755 173.099 165.371 172.64 164.925 172.217C163.647 171.264 162.114 171.015 160.336 171.468C158.634 171.901 157.122 172.884 155.789 174.409C154.456 175.944 153.323 177.893 152.377 180.247C150.739 184.51 149.793 189.762 149.54 196.013C149.4 198.79 149.434 201.483 149.647 204.11C149.866 206.725 150.205 209.051 150.681 211.095C151.673 215.348 153.137 218.027 155.062 219.125C155.729 219.573 156.417 219.801 157.123 219.796C157.828 219.793 158.593 219.691 159.415 219.482C160.372 219.237 161.318 218.729 162.254 217.954ZM282.683 147.483C281.933 150.282 281.375 153.383 281.031 156.781C280.686 160.178 280.58 163.588 280.721 166.995C283.041 166.23 285.182 164.963 287.132 163.178C289.082 161.403 290.704 159.31 291.988 156.91C293.26 154.462 294.101 151.877 294.518 149.142C294.935 146.406 294.839 143.751 294.235 141.161C293.837 139.458 293.302 138.213 292.617 137.429C291.924 136.656 290.999 136.418 289.848 136.71C288.312 137.101 286.939 138.244 285.745 140.147C284.538 142.042 283.52 144.487 282.683 147.483Z" fill="url(#paint3_linear_37233_96471)"/>
<path d="M79.3361 158.554C82.2789 160.239 84.6845 162.432 86.5626 165.129C88.4429 167.836 89.7754 170.868 90.5598 174.246C91.5223 178.372 91.641 182.704 90.9195 187.207C90.1912 191.723 88.6346 195.986 86.232 199.999C83.7154 204.269 80.3995 207.969 76.2882 211.109C72.1691 214.261 67.364 216.535 61.8543 217.938L61.1685 218.112L61.9225 256.616L43.6529 261.266L41.9251 175.365L60.1622 168.074L61.1384 213.15C65.0815 211.837 68.4723 208.984 71.3084 204.591C73.896 200.624 75.6014 195.993 76.435 190.698C77.271 185.628 77.1285 180.716 76.0216 175.966C74.8527 170.953 72.6779 167.156 69.4832 164.566C67.7798 163.279 65.8054 162.451 63.5768 162.07C61.3378 161.691 58.8623 161.836 56.1753 162.52C51.043 163.827 46.5978 165.71 42.8497 168.17C39.1013 170.629 36.1083 173.557 33.8683 176.952C31.6383 180.344 30.2353 184.166 29.672 188.423C29.1059 192.671 29.3883 197.218 30.5156 202.056C31.1375 204.723 31.924 206.78 32.8744 208.219C33.1634 208.712 33.4806 209.147 33.8268 209.492C34.06 209.743 34.2145 210.012 34.2828 210.304C29.682 211.475 26.1139 211.414 23.5705 210.123C20.7444 208.719 18.8125 205.787 17.7704 201.319C17.1194 198.526 17.0756 195.619 17.637 192.579C18.2073 189.537 19.2842 186.469 20.8956 183.367C22.3993 180.418 24.3479 177.529 26.7381 174.694C29.117 171.851 31.8153 169.237 34.8083 166.835C41.0971 161.833 47.7208 158.446 54.6806 156.674C64.492 154.177 72.7171 154.805 79.3361 158.554Z" fill="url(#paint4_linear_37233_96471)"/>
<path d="M121.067 293.129C119.959 293.011 118.965 292.715 118.085 292.241C117.19 291.77 116.453 291.143 115.871 290.359C115.288 289.576 114.888 288.659 114.668 287.608C114.484 286.728 114.451 285.868 114.57 285.027C114.689 284.186 114.944 283.424 115.336 282.738C115.727 282.053 116.23 281.478 116.846 281.014C117.462 280.549 118.151 280.237 118.913 280.078C119.858 279.88 120.702 279.95 121.445 280.288C122.188 280.626 122.724 281.193 123.055 281.988C121.649 282.282 120.612 282.89 119.94 283.811C119.621 284.249 119.406 284.746 119.296 285.303C119.187 285.861 119.197 286.449 119.326 287.066C119.573 288.249 120.114 289.112 120.948 289.658C121.781 290.203 122.783 290.354 123.952 290.109C124.648 289.963 125.272 289.699 125.822 289.317C126.373 288.934 126.825 288.473 127.178 287.933C127.531 287.393 127.764 286.785 127.876 286.11C127.989 285.436 127.971 284.743 127.823 284.034C127.548 282.721 126.815 281.447 125.625 280.216C125.155 279.738 124.651 279.278 124.113 278.835C123.575 278.393 122.833 277.811 121.887 277.09C121.039 276.445 120.325 275.882 119.744 275.399C119.163 274.918 118.626 274.413 118.132 273.885C116.933 272.614 116.187 271.276 115.893 269.87C115.673 268.82 115.692 267.798 115.951 266.804C116.209 265.811 116.683 264.892 117.37 264.05C118.057 263.206 118.914 262.486 119.94 261.887C120.967 261.289 122.117 260.856 123.391 260.589C125.559 260.136 127.406 260.284 128.934 261.034C129.669 261.401 130.277 261.898 130.757 262.524C131.238 263.151 131.568 263.89 131.746 264.744C131.98 265.861 131.888 266.833 131.472 267.66C131.281 268.057 131.011 268.388 130.662 268.652C130.313 268.918 129.922 269.095 129.488 269.186C128.477 269.397 127.568 269.149 126.762 268.44C127.197 267.965 127.498 267.391 127.667 266.718C127.834 266.046 127.846 265.361 127.7 264.665C127.519 263.798 127.119 263.165 126.501 262.766C125.883 262.368 125.127 262.262 124.234 262.449C123.695 262.562 123.22 262.764 122.808 263.055C122.396 263.347 122.071 263.71 121.832 264.144C121.581 264.58 121.419 265.067 121.346 265.603C121.273 266.139 121.298 266.703 121.422 267.294C121.598 268.135 121.964 268.901 122.52 269.594C123.076 270.287 123.81 270.976 124.722 271.663C125.541 272.301 126.411 272.921 127.332 273.524C129.49 274.992 131.119 276.523 132.221 278.116C132.871 279.063 133.327 280.16 133.588 281.408C133.863 282.722 133.848 283.997 133.545 285.232C133.241 286.468 132.676 287.604 131.851 288.641C131.028 289.69 130.002 290.584 128.772 291.321C127.541 292.058 126.17 292.585 124.66 292.901C123.372 293.171 122.175 293.247 121.067 293.129Z" fill="white"/>
<path d="M136.169 267.109L141.981 265.894L141.966 269.064C143.09 267.622 144.539 266.716 146.313 266.345C147.823 266.029 149.088 266.245 150.108 266.991C151.279 267.87 152.1 269.433 152.57 271.679C153.023 273.847 153.173 275.941 153.02 277.961C152.832 280.537 152.215 282.633 151.169 284.251C149.886 286.247 148.036 287.498 145.62 288.003C144.687 288.198 143.888 288.214 143.224 288.052C142.719 287.939 142.275 287.682 141.89 287.282L141.858 297.552L136.075 300.283L136.169 267.109ZM146.578 282.065C147.096 280.873 147.382 279.291 147.436 277.319C147.475 275.734 147.339 274.2 147.028 272.715C146.751 271.388 146.31 270.493 145.706 270.03C145.319 269.754 144.849 269.674 144.298 269.79C143.812 269.891 143.355 270.165 142.927 270.611C142.499 271.057 142.169 271.64 141.936 272.361L141.914 284.151C142.061 284.394 142.281 284.578 142.574 284.702C142.868 284.825 143.224 284.843 143.645 284.755C144.945 284.483 145.922 283.587 146.578 282.065Z" fill="white"/>
<path d="M157.261 284.375C156.245 283.71 155.567 282.57 155.229 280.954C155.07 280.192 154.992 279.29 154.993 278.248L155.023 264.729L160.835 263.513L160.808 277.833C160.774 278.197 160.812 278.641 160.922 279.167C161.038 279.718 161.247 280.079 161.55 280.249C161.852 280.419 162.293 280.443 162.871 280.322C163.265 280.239 163.631 280.07 163.968 279.815C164.306 279.559 164.598 279.241 164.848 278.859C165.357 278.081 165.664 277.125 165.77 275.993L167.464 275.638C167.168 277.826 166.601 279.637 165.764 281.074C165.05 282.252 164.161 283.178 163.095 283.853C162.321 284.345 161.473 284.686 160.554 284.879C159.267 285.148 158.169 284.98 157.261 284.375ZM157.272 261.718C156.844 261.636 156.455 261.481 156.106 261.252C155.759 261.037 155.462 260.75 155.216 260.39C154.969 260.03 154.801 259.633 154.71 259.2C154.619 258.766 154.614 258.336 154.696 257.907C154.778 257.479 154.932 257.083 155.158 256.72C155.384 256.358 155.676 256.054 156.036 255.806C156.396 255.56 156.792 255.391 157.226 255.3C157.659 255.21 158.09 255.205 158.519 255.287C158.947 255.369 159.344 255.529 159.71 255.768C160.075 256.007 160.38 256.307 160.627 256.666C160.874 257.026 161.043 257.422 161.133 257.856C161.224 258.29 161.229 258.72 161.147 259.149C161.065 259.578 160.902 259.961 160.658 260.3C160.415 260.653 160.115 260.952 159.755 261.198C159.396 261.445 158.999 261.614 158.565 261.705C158.132 261.795 157.701 261.8 157.272 261.718Z" fill="white"/>
<path d="M177.892 279.771C177.026 279.102 176.459 278.131 176.193 276.857C176.067 276.253 175.995 275.534 175.978 274.701C175.961 273.868 175.972 272.79 176.011 271.465C176.044 270.115 176.055 269.039 176.046 268.239C176.035 267.439 175.972 266.757 175.854 266.192C175.565 264.812 174.935 264.225 173.963 264.428C173.28 264.571 172.725 265.064 172.298 265.908C171.941 266.627 171.705 267.595 171.59 268.812L171.559 282.331L165.747 283.547L165.801 262.475L171.614 261.259L171.617 263.438C172.221 262.394 172.94 261.599 173.771 261.054C174.387 260.651 175.081 260.369 175.856 260.207C177.222 259.921 178.374 260.05 179.31 260.595C180.313 261.194 180.976 262.269 181.301 263.819C181.496 264.752 181.579 266.002 181.551 267.571C181.55 268.024 181.534 268.706 181.506 269.617C181.43 271.155 181.397 272.375 181.408 273.278C181.418 273.851 181.459 274.309 181.53 274.651C181.643 275.189 181.852 275.581 182.157 275.826C182.461 276.07 182.909 276.131 183.501 276.007C184.302 275.84 184.91 275.37 185.324 274.598C185.64 274.01 185.913 273.055 186.143 271.732L187.838 271.378C187.458 274.542 186.63 276.875 185.353 278.376C184.452 279.442 183.299 280.122 181.893 280.416C180.225 280.764 178.891 280.549 177.892 279.771Z" fill="white"/>
<path d="M193.353 277.884C192.187 277.751 191.162 277.373 190.278 276.748C189.377 276.114 188.614 275.201 187.988 274.009C187.361 272.817 186.86 271.321 186.483 269.521C186.057 267.485 185.85 265.314 185.861 263.008C185.877 260.331 186.186 257.874 186.787 255.636C187.49 253.035 188.558 250.899 189.991 249.228C191.621 247.324 193.685 246.11 196.181 245.588C198.19 245.168 199.875 245.254 201.233 245.847C202.725 246.495 203.665 247.739 204.049 249.577C204.291 250.734 204.266 251.664 203.975 252.37C203.624 253.183 202.963 253.692 201.99 253.895C201.583 253.98 201.171 253.991 200.753 253.928C200.335 253.864 199.913 253.665 199.487 253.329C199.698 253.161 199.888 252.926 200.058 252.623C200.228 252.32 200.362 251.98 200.462 251.603C200.683 250.762 200.716 249.966 200.559 249.217C200.408 248.495 200.105 247.962 199.649 247.619C199.111 247.21 198.422 247.094 197.582 247.27C196.859 247.421 196.202 247.836 195.611 248.515C195.019 249.194 194.503 250.087 194.063 251.194C193.64 252.255 193.297 253.465 193.033 254.823C192.769 256.181 192.599 257.602 192.526 259.084C192.455 260.58 192.468 262.086 192.566 263.601C192.663 265.116 192.852 266.543 193.132 267.883C193.341 268.882 193.6 269.74 193.907 270.456C194.215 271.174 194.594 271.76 195.046 272.213C196.039 273.226 197.455 273.54 199.294 273.155C200.871 272.825 202.262 272.167 203.467 271.181C204.673 270.196 205.621 268.959 206.311 267.471L207.323 267.691C207.08 269.085 206.61 270.36 205.913 271.513C205.214 272.667 204.367 273.677 203.369 274.544C202.452 275.339 201.472 275.997 200.429 276.516C199.386 277.036 198.372 277.399 197.387 277.605C195.864 277.925 194.519 278.017 193.353 277.884Z" fill="white"/>
<path d="M208.586 273.33C207.246 272.431 206.343 270.865 205.876 268.632C205.678 267.686 205.564 266.668 205.535 265.577C205.506 264.486 205.567 263.39 205.721 262.288C206.078 259.8 206.837 257.694 207.998 255.97C209.342 254.003 211.11 252.79 213.304 252.331C214.394 252.103 215.251 252.119 215.874 252.379C216.497 252.64 216.874 253.079 217.003 253.696L217.065 253.991L217.049 251.753L222.861 250.537L222.834 264.857C222.798 265.276 222.83 265.722 222.929 266.195C223.171 267.351 223.844 267.814 224.947 267.583C225.682 267.429 226.273 266.914 226.721 266.039C227.102 265.301 227.335 264.32 227.422 263.096L229.116 262.741C228.822 264.942 228.288 266.747 227.514 268.156C226.853 269.323 226.023 270.237 225.024 270.898C224.288 271.382 223.474 271.716 222.58 271.903C221.438 272.142 220.463 272.021 219.656 271.538C218.849 271.056 218.246 270.219 217.846 269.027C217.309 270.264 216.683 271.272 215.969 272.052C215.057 273.065 213.937 273.711 212.611 273.989C211.074 274.311 209.732 274.092 208.586 273.33ZM215.321 269.103C215.623 268.876 215.901 268.585 216.156 268.229C216.722 267.398 217.01 266.413 217.018 265.272L217.045 255.765C217.017 255.633 216.955 255.485 216.859 255.32C216.763 255.155 216.646 255.005 216.507 254.869C216.112 254.554 215.633 254.456 215.068 254.574C214.529 254.687 214.044 254.973 213.613 255.434C213.181 255.894 212.808 256.486 212.494 257.21C211.945 258.518 211.606 260.145 211.479 262.091C211.412 262.956 211.403 263.797 211.451 264.617C211.499 265.436 211.59 266.168 211.725 266.811C212.005 268.152 212.444 269.006 213.043 269.374C213.251 269.523 213.467 269.601 213.688 269.609C213.909 269.618 214.151 269.594 214.414 269.539C214.717 269.477 215.019 269.331 215.321 269.103Z" fill="white"/>
<path d="M230.901 269.701C230.09 269.562 229.374 269.283 228.751 268.865C228.177 268.478 227.709 268.01 227.348 267.462C226.986 266.914 226.738 266.318 226.603 265.674C226.419 264.794 226.477 263.952 226.775 263.15C227.037 262.436 227.435 261.88 227.968 261.481C228.629 259.396 229.146 257.313 229.52 255.233C229.893 253.153 230.197 250.903 230.431 248.482L236.236 246.445C237.108 249.827 237.801 252.418 238.314 254.216C238.839 256.068 239.239 257.423 239.515 258.284C239.808 259.292 240.034 260.178 240.194 260.939C240.336 261.622 240.391 262.146 240.357 262.509C241.418 261.547 242.241 260.669 242.829 259.874L244.524 259.519C243.799 260.836 243.01 262.002 242.16 263.016C241.31 264.031 240.394 264.977 239.412 265.853C238.787 266.862 237.912 267.696 236.789 268.356C235.815 268.943 234.743 269.36 233.575 269.604C232.603 269.808 231.711 269.84 230.901 269.701ZM233.877 265.345C234.461 264.537 234.62 263.49 234.351 262.202C234.238 261.664 234.063 260.994 233.827 260.193L233.477 259.012C233.142 257.999 232.773 256.822 232.368 255.48L231.583 252.806C231.457 254.108 231.258 255.414 230.984 256.726C230.71 258.038 230.351 259.502 229.907 261.116C230.596 261.329 231.003 261.731 231.126 262.322C231.236 262.847 231.173 263.333 230.938 263.78C230.684 264.272 230.294 264.573 229.769 264.683C229.506 264.738 229.279 264.748 229.087 264.712C228.894 264.677 228.723 264.566 228.575 264.378C228.778 265.35 229.117 266.022 229.593 266.396C230.069 266.769 230.747 266.864 231.627 266.68C232.637 266.468 233.387 266.023 233.877 265.345Z" fill="white"/>
<path d="M245.099 266C244.082 265.336 243.405 264.195 243.067 262.579C242.907 261.818 242.829 260.916 242.83 259.873L242.86 246.354L248.673 245.138L248.645 259.459C248.611 259.823 248.65 260.267 248.76 260.792C248.875 261.344 249.084 261.705 249.387 261.874C249.69 262.044 250.13 262.068 250.708 261.947C251.102 261.865 251.468 261.696 251.805 261.441C252.143 261.185 252.436 260.866 252.685 260.485C253.194 259.707 253.501 258.751 253.607 257.618L255.302 257.264C255.006 259.452 254.438 261.263 253.601 262.699C252.888 263.877 251.998 264.804 250.933 265.479C250.158 265.97 249.311 266.312 248.392 266.504C247.104 266.774 246.007 266.606 245.099 266ZM245.11 243.343C244.681 243.262 244.292 243.107 243.943 242.878C243.596 242.663 243.299 242.375 243.053 242.015C242.806 241.656 242.637 241.259 242.547 240.826C242.456 240.392 242.451 239.961 242.533 239.532C242.615 239.104 242.769 238.709 242.995 238.346C243.22 237.983 243.514 237.679 243.873 237.432C244.233 237.186 244.629 237.017 245.063 236.926C245.497 236.835 245.927 236.831 246.356 236.913C246.784 236.995 247.181 237.155 247.546 237.394C247.912 237.633 248.217 237.932 248.464 238.292C248.711 238.651 248.88 239.048 248.97 239.482C249.061 239.915 249.066 240.346 248.984 240.775C248.902 241.203 248.739 241.587 248.494 241.926C248.253 242.278 247.952 242.578 247.592 242.824C247.233 243.071 246.836 243.24 246.403 243.33C245.969 243.421 245.538 243.426 245.11 243.343Z" fill="white"/>
<path d="M265.729 261.397C264.862 260.728 264.296 259.757 264.03 258.483C263.904 257.879 263.832 257.16 263.815 256.327C263.798 255.494 263.809 254.416 263.848 253.091C263.881 251.741 263.892 250.665 263.883 249.865C263.872 249.065 263.809 248.383 263.691 247.817C263.402 246.438 262.772 245.85 261.8 246.054C261.117 246.196 260.562 246.69 260.135 247.533C259.778 248.253 259.542 249.22 259.427 250.438L259.396 263.956L253.583 265.172L253.638 244.1L259.45 242.884L259.454 245.064C260.058 244.019 260.776 243.224 261.608 242.68C262.223 242.277 262.918 241.994 263.693 241.832C265.059 241.547 266.21 241.676 267.147 242.221C268.15 242.82 268.813 243.895 269.137 245.445C269.332 246.377 269.416 247.628 269.388 249.197C269.386 249.649 269.371 250.332 269.343 251.243C269.266 252.78 269.234 254.001 269.244 254.903C269.255 255.477 269.296 255.935 269.367 256.276C269.48 256.815 269.688 257.207 269.993 257.452C270.298 257.696 270.746 257.757 271.337 257.633C272.138 257.466 272.747 256.996 273.161 256.223C273.476 255.636 273.75 254.681 273.98 253.358L275.675 253.003C275.295 256.168 274.466 258.5 273.19 260.002C272.289 261.068 271.136 261.748 269.73 262.042C268.062 262.39 266.728 262.175 265.729 261.397Z" fill="white"/>
<path d="M276.482 259.024C275.035 258.203 274.082 256.695 273.623 254.501C273.45 253.673 273.345 252.739 273.305 251.699C273.265 250.658 273.315 249.588 273.456 248.489C273.759 245.876 274.514 243.682 275.719 241.907C277.171 239.739 279.158 238.391 281.68 237.863C285.135 237.141 287.312 238.927 288.21 243.223L288.218 243.262C288.303 243.272 288.371 243.271 288.424 243.26L288.66 243.211C289.553 243.024 290.559 242.554 291.676 241.799C292.659 241.127 293.56 240.356 294.38 239.485L294.965 240.514C294.35 241.507 293.482 242.421 292.362 243.259C291.241 244.097 289.959 244.797 288.513 245.36C288.738 247.219 288.731 248.958 288.494 250.578C288.257 252.197 287.818 253.636 287.176 254.895C286.542 256.124 285.733 257.137 284.747 257.932C283.762 258.728 282.652 259.255 281.417 259.513C279.421 259.931 277.776 259.768 276.482 259.024ZM283.589 254.607C283.992 254.077 284.331 253.386 284.605 252.533C284.879 251.681 285.067 250.709 285.168 249.618C285.269 248.528 285.275 247.381 285.189 246.179C284.773 246.157 284.452 246.018 284.228 245.764C284.003 245.509 283.844 245.158 283.751 244.712C283.635 244.16 283.65 243.677 283.797 243.262C283.943 242.848 284.196 242.514 284.554 242.261C284.323 241.418 284.057 240.836 283.757 240.515C283.6 240.356 283.425 240.255 283.231 240.213C283.037 240.172 282.802 240.18 282.526 240.237C281.62 240.427 280.876 241.295 280.295 242.843C279.752 244.246 279.414 245.907 279.281 247.827C279.153 249.705 279.233 251.333 279.522 252.712C279.662 253.382 279.812 253.92 279.972 254.325C280.132 254.731 280.322 255.034 280.543 255.235C280.75 255.438 280.989 255.563 281.258 255.609C281.528 255.656 281.867 255.636 282.275 255.551C282.747 255.451 283.186 255.137 283.589 254.607Z" fill="white"/>
<defs>
<filter id="filter0_f_37233_96471" x="17.1452" y="15.0473" width="324.71" height="324.71" filterUnits="userSpaceOnUse" color-interpolation-filters="sRGB">
<feFlood flood-opacity="0" result="BackgroundImageFix"/>
<feBlend mode="normal" in="SourceGraphic" in2="BackgroundImageFix" result="shape"/>
<feGaussianBlur stdDeviation="6.5" result="effect1_foregroundBlur_37233_96471"/>
</filter>
<radialGradient id="paint0_radial_37233_96471" cx="0" cy="0" r="1" gradientUnits="userSpaceOnUse" gradientTransform="translate(161.454 136.972) scale(193.054 193.057)">
<stop stop-color="#F6AA11"/>
<stop offset="0.773" stop-color="#F15A4B"/>
<stop offset="0.9973" stop-color="#ED2076"/>
</radialGradient>
<radialGradient id="paint1_radial_37233_96471" cx="0" cy="0" r="1" gradientUnits="userSpaceOnUse" gradientTransform="translate(161.454 136.972) scale(193.054 193.057)">
<stop stop-color="#F6AA11"/>
<stop offset="0.773" stop-color="#F15A4B"/>
<stop offset="0.9973" stop-color="#ED2076"/>
</radialGradient>
<linearGradient id="paint2_linear_37233_96471" x1="36.9962" y1="173.291" x2="301.45" y2="165.07" gradientUnits="userSpaceOnUse">
<stop stop-color="#140736"/>
<stop offset="1" stop-color="#2F0E7F"/>
</linearGradient>
<linearGradient id="paint3_linear_37233_96471" x1="35.625" y1="163.699" x2="339.816" y2="171.92" gradientUnits="userSpaceOnUse">
<stop stop-color="#F7B409"/>
<stop offset="1" stop-color="#EC167C"/>
</linearGradient>
<linearGradient id="paint4_linear_37233_96471" x1="35.625" y1="163.699" x2="339.816" y2="171.92" gradientUnits="userSpaceOnUse">
<stop stop-color="#F7B409"/>
<stop offset="1" stop-color="#EC167C"/>
</linearGradient>
</defs>
</svg>
