<svg data-name="Layer 1" xmlns="http://www.w3.org/2000/svg" viewBox="0 0 140 90" width="140px" height="90px">
    <defs>
        <style>.cls-1{fill:#0CA8E8;}.cls-2{fill:none;}</style>
    </defs>
    <title>vegas_01</title>
    <path class="cls-1"
          d="M112.15,54.79a5.15,5.15,0,0,0-1.46-2.74L84.57,25.8a5.63,5.63,0,0,0-.9-.74,5,5,0,0,0-6.38.72L55.52,47.67,51.18,52a5.08,5.08,0,0,0-.06,7.31l26.15,26.3A5.2,5.2,0,0,0,79.59,87l.48.13,1.48,0,.31-.08.45-.12a5.24,5.24,0,0,0,2.27-1.37l1.85-1.87q12.06-12.14,24.14-24.26a6,6,0,0,0,1.63-3l0-1.46Zm-2.41,1.31a3.4,3.4,0,0,1-.93,1.65Q96.74,69.88,84.67,82l-1.85,1.87a2.74,2.74,0,0,1-1.2.73l-.33.08h-.72l-.31-.08A2.7,2.7,0,0,1,79,83.89L52.9,57.59A2.61,2.61,0,0,1,53,53.8l4.34-4.36L79.07,27.55a2.53,2.53,0,0,1,3.24-.39,3.14,3.14,0,0,1,.49.41l26.12,26.25a2.65,2.65,0,0,1,.78,1.46,1.44,1.44,0,0,0,0,.17Z"/>
    <path class="cls-1"
          d="M95.51,50.22h0a5.43,5.43,0,0,0-3.85,1.6,5.48,5.48,0,1,0,3.88-1.6Zm0,8.53a3,3,0,0,1-2.11-.88,3,3,0,0,1,0-4.28,3,3,0,0,1,2.09-.87h0a3,3,0,0,1,3,3A3,3,0,0,1,95.49,58.74Z"/>
    <path class="cls-1"
          d="M80.9,61.24h0a5.51,5.51,0,0,0,0-11h0A5.42,5.42,0,0,0,77,51.81a5.51,5.51,0,0,0,3.86,9.43Zm-2.1-7.66a2.94,2.94,0,0,1,2.08-.87h0a3,3,0,0,1,0,6h0a3,3,0,0,1-2.11-.87,3,3,0,0,1,0-4.29Z"/>
    <path class="cls-1"
          d="M66.39,50.22a5.53,5.53,0,0,0-3.91,9.42,5.44,5.44,0,0,0,3.87,1.61h0a5.5,5.5,0,0,0,5.49-5.51A5.52,5.52,0,0,0,66.39,50.22Zm2.08,7.65a3,3,0,0,1-2.11.88h0a3,3,0,0,1-2.11-.87,3,3,0,0,1,0-4.29,2.83,2.83,0,0,1,2.1-.86,3,3,0,0,1,2.1,5.15Z"/>
    <path class="cls-1"
          d="M80.94,46.6h0a5.52,5.52,0,0,0,0-11h0a5.52,5.52,0,0,0,0,11Zm0-8.53h0a3,3,0,0,1,0,6h0a3,3,0,0,1,0-6Z"/>
    <path class="cls-1"
          d="M81,64.85a5.53,5.53,0,0,0-5.57,5.44,5.5,5.5,0,0,0,5.4,5.59h.09a5.52,5.52,0,0,0,.09-11Zm-.09,8.53h0a3,3,0,0,1-2.94-3,3,3,0,0,1,3-3h0a3,3,0,0,1,2.95,3A3,3,0,0,1,80.92,73.38Z"/>
    <path class="cls-1"
          d="M60.75,20.78h0a5.51,5.51,0,0,0,0-11h0a5.48,5.48,0,0,0-5.49,5.52,5.5,5.5,0,0,0,1.64,3.92A5.41,5.41,0,0,0,60.75,20.78Zm-2.1-7.66a3,3,0,0,1,2.11-.87h0a3,3,0,0,1,0,6,3,3,0,0,1-3-3A3,3,0,0,1,58.65,13.12Z"/>
    <path class="cls-1"
          d="M42,32.06h0a5.53,5.53,0,0,0,5.5-5.52A5.51,5.51,0,0,0,42,21h0a5.51,5.51,0,0,0-3.88,9.42A5.45,5.45,0,0,0,42,32.06Zm0-8.53h0a3,3,0,0,1,2.11,5.14,3,3,0,0,1-2.11.89h0a3,3,0,0,1-2.11-.88A3,3,0,0,1,42,23.53Z"/>
    <path class="cls-1"
          d="M60.76,32.06h0a5.52,5.52,0,0,0,3.88-9.41A5.46,5.46,0,0,0,60.78,21h0a5.48,5.48,0,0,0-5.49,5.51,5.5,5.5,0,0,0,1.62,3.92A5.43,5.43,0,0,0,60.76,32.06Zm-2.1-7.67a3,3,0,0,1,2.1-.87h0a3,3,0,0,1,3,3,3,3,0,0,1-3,3h0a3,3,0,0,1-2.1-.87,3,3,0,0,1,0-4.29Z"/>
    <path class="cls-1"
          d="M42,32.31h0a5.53,5.53,0,0,0-5.5,5.47A5.52,5.52,0,0,0,42,43.34h0a5.43,5.43,0,0,0,3.84-1.59A5.51,5.51,0,0,0,42,32.31ZM44.09,40A3,3,0,1,1,42,34.81h0a3,3,0,0,1,3,3A3,3,0,0,1,44.09,40Z"/>
    <path class="cls-1"
          d="M58.07,39.12a3,3,0,0,1,.59-3.44A3,3,0,0,1,62,35.09,1.61,1.61,0,0,0,64,34.74L74.41,24.23a2,2,0,0,0,.6-1.45q0-4.63,0-9.26V9.89c0-.74,0-1.49,0-2.23A5,5,0,0,0,71.35,3l-.44-.11-.32-.08H32.31l-.48.08L31.36,3a5.06,5.06,0,0,0-3.5,3.85l-.06.24,0,39,.12.2a5,5,0,0,0,5.19,4H47.65a1.94,1.94,0,0,0,1.43-.59L57.75,41A1.55,1.55,0,0,0,58.07,39.12Zm-2.49.5-8.13,8.18H33.07a2.57,2.57,0,0,1-2.79-2.25l0-38,0-.14a2.55,2.55,0,0,1,1.85-2l.31-.09H70.31l.35.09A2.53,2.53,0,0,1,72.5,7.74c0,.71,0,1.43,0,2.14v3.63q0,4.54,0,9.09l-10,10a5.49,5.49,0,0,0-7,7Z"/>
    <path class="cls-1"
          d="M42,20.78h0a5.52,5.52,0,0,0,3.86-9.43A5.31,5.31,0,0,0,42,9.75a5.5,5.5,0,0,0-5.48,5.53,5.52,5.52,0,0,0,1.63,3.89A5.42,5.42,0,0,0,42,20.78Zm-2.11-7.64A3,3,0,0,1,42,12.25h0a3,3,0,0,1,3,3,3,3,0,0,1-3,3,3.1,3.1,0,0,1-2.11-.88,3,3,0,0,1-.9-2.14A3,3,0,0,1,39.88,13.14Z"/>
    <rect class="cls-2" width="140" height="90"/>
</svg>
