<svg id="Layer_1" data-name="Layer 1" xmlns="http://www.w3.org/2000/svg" viewBox="0 0 140 90" width="140px" height="90px">
    <defs>
        <style>.cls-1{fill:#0CA8E8;}.cls-2{fill:none;}</style>
    </defs>
    <title>vegas_03</title>
    <path class="cls-1"
          d="M48.4,3.5H91.6a1.59,1.59,0,0,1,1,1.7q0,39.8,0,79.6a1.59,1.59,0,0,1-1,1.7H48.4a1.6,1.6,0,0,1-1-1.7q0-39.8,0-79.6A1.59,1.59,0,0,1,48.4,3.5ZM50,84h4.82v-.48q0-3.28,0-6.55a1.3,1.3,0,0,1,1.49-1.5H84.83a1.3,1.3,0,0,1,1.49,1.5q0,3.3,0,6.59V84H90V46.27H81c0,.14-.06.26-.07.38A36.28,36.28,0,0,0,80.87,53a43.25,43.25,0,0,0,1.5,8.53,1.32,1.32,0,0,1,0,.63,1.27,1.27,0,0,1-1.41,1H61.47a1.32,1.32,0,0,1-1.53-1.4c-.08-1.1-.17-2.2-.18-3.31a25.67,25.67,0,0,1,2.57-11.9c0-.09.07-.18.11-.28H50ZM81.4,43.71H90V6C89,6,88,6,87.08,6c-.09,0-.2.15-.26.25a11.78,11.78,0,0,1-.65,1.2,6.19,6.19,0,0,1-2.49,1.89l-.51.24c.41.38.84.71,1.19,1.1a3.55,3.55,0,0,1,.09,4.88,6.71,6.71,0,0,1-2.84,1.93,14.75,14.75,0,0,1-8,.65,9.7,9.7,0,0,1-4.1-1.65,4.47,4.47,0,0,1-1.79-2.39c-.06-.2-.1-.41-.15-.61l-.41.09a15.26,15.26,0,0,1-8.06-.35A7,7,0,0,1,55.61,11a3.53,3.53,0,0,1,0-4.56L56,6H50V43.72l.25,0H63.71a.65.65,0,0,0,.43-.22c.75-.88,1.48-1.77,2.21-2.67.05-.06.09-.13.15-.21-.56-.1-1.09-.18-1.61-.3-1.08-.24-2.14-.54-3.23-.73-1.24-.22-1.72.27-1.57,1.52a1.27,1.27,0,0,1-1.35,1.53q-2.29,0-4.58,0a1.25,1.25,0,0,1-1.36-1.28c-.07-1.09-.11-2.18-.16-3.27-.14-2.92-.28-5.84-.42-8.75A1.25,1.25,0,0,1,53.41,28l5.22-.67a1.31,1.31,0,0,1,1.54.88s0,.05.08.09l.28-.11a18,18,0,0,1,6-1.32,20,20,0,0,1,11.16,2.93.57.57,0,0,0,.62,0l4.71-2.33a1.34,1.34,0,0,1,1.91.42c.78.94,1.55,1.88,2.36,2.8a1.27,1.27,0,0,1-.05,2,19.53,19.53,0,0,0-4.57,6.73A23.11,23.11,0,0,0,81.4,43.71Zm2.07-13.63-.41.19-4.44,2.19a1.49,1.49,0,0,1-1.55-.1,24.69,24.69,0,0,0-2.63-1.45,16,16,0,0,0-11.88-.79,27.54,27.54,0,0,0-3,1.28,1.3,1.3,0,0,1-1.95-1.11c0-.1,0-.19,0-.32l-2.74.35c0,.17,0,.29,0,.42Q55,32.5,55,34.27c.08,1.83.17,3.65.24,5.48,0,.32.13.41.44.39a10.46,10.46,0,0,1,1.37,0c.36,0,.47-.1.54-.43A3.26,3.26,0,0,1,60.5,37.1a7.78,7.78,0,0,1,3.2.35,16.43,16.43,0,0,0,5.07.75,1.59,1.59,0,0,1,1.69,1.21,1.46,1.46,0,0,1-.58,1.67c-.84.77-1.64,1.59-2.46,2.39a1.54,1.54,0,0,0-.17.25H78.76a23.94,23.94,0,0,1,6-12.11Zm-5.1,16.18H65.85a.64.64,0,0,0-.66.37,23.57,23.57,0,0,0-2.86,12.45c0,.53.06,1.05.08,1.57h17A42.85,42.85,0,0,1,78.37,46.26ZM57.43,84H83.72V78H57.43Zm19-73.47,0-.11c-1.07.17-2.16.3-3.22.53a5.44,5.44,0,0,0-2.53,1.25,1.18,1.18,0,0,0,0,2,5.72,5.72,0,0,0,1.62,1,11.71,11.71,0,0,0,8.34,0A4.28,4.28,0,0,0,82.43,14a1.06,1.06,0,0,0,0-1.65,5.85,5.85,0,0,0-1.46-1A10.31,10.31,0,0,0,76.47,10.48ZM63.69,11.53c1-.14,1.94-.22,2.89-.42a5.8,5.8,0,0,0,3-1.43,1.12,1.12,0,0,0,0-1.87,5.62,5.62,0,0,0-1.63-1,11.52,11.52,0,0,0-8.45,0,5.8,5.8,0,0,0-1.68,1.08,1,1,0,0,0,0,1.72,5.84,5.84,0,0,0,1.47,1A11.8,11.8,0,0,0,63.69,11.53ZM84.07,6.15,84,6H72a3.55,3.55,0,0,0,1.4,1A11.34,11.34,0,0,0,78,7.95a10.94,10.94,0,0,0,5-1.1A9.91,9.91,0,0,0,84.07,6.15Z"/>
    <path class="cls-1"
          d="M0,85.51v-81a1.63,1.63,0,0,1,1-1H44.12a1.47,1.47,0,0,1,1,1.59q0,39.91,0,79.82a1.47,1.47,0,0,1-1,1.59H1A1.63,1.63,0,0,1,0,85.51ZM2.61,46.27V84H7.41v-.43q0-3.3,0-6.59c0-1,.46-1.51,1.51-1.51H37.39c1,0,1.49.46,1.49,1.49q0,3.3,0,6.59V84h3.66V46.26H40.42c-2.12,0-4.25,0-6.37,0-.39,0-.57.06-.57.5s-.09,1-.12,1.56a41.41,41.41,0,0,0,1.54,13.14,1.27,1.27,0,0,1-1.31,1.73H13.95a1.29,1.29,0,0,1-1.43-1.34c-.07-.82-.15-1.64-.18-2.47a26.2,26.2,0,0,1,2.52-12.71c.06-.12.1-.24.17-.39Zm39.92-2.54V6c-1,0-1.92,0-2.86,0a.35.35,0,0,0-.26.19A5,5,0,0,1,37,9c-.4.24-.83.43-1.24.64.36.31.73.6,1.06.93a3.59,3.59,0,0,1,.09,5.19A7.13,7.13,0,0,1,34,17.59a14.78,14.78,0,0,1-7.37.65,10.17,10.17,0,0,1-4.52-1.7,4.54,4.54,0,0,1-1.81-2.34c-.07-.22-.12-.46-.17-.69H20l-.22,0a15.45,15.45,0,0,1-7.36-.11,7.86,7.86,0,0,1-4-2.21,3.57,3.57,0,0,1-.12-4.91L8.53,6H2.6V43.73H16.28a.7.7,0,0,0,.45-.25c.73-.86,1.45-1.74,2.16-2.61l.19-.23c-.57-.11-1.11-.19-1.64-.31-1-.23-2.07-.54-3.12-.71-1.38-.23-1.75.15-1.65,1.53a1.28,1.28,0,0,1-1.39,1.51H6.81a1.31,1.31,0,0,1-1.46-1.42c0-.84-.07-1.67-.11-2.51-.14-3.12-.3-6.24-.43-9.36A1.23,1.23,0,0,1,6,28l4.92-.62c1.09-.14,1.39,0,1.89.92l.35-.14a18,18,0,0,1,5.93-1.3,19.94,19.94,0,0,1,11.2,2.92.6.6,0,0,0,.66,0l4.71-2.33a1.34,1.34,0,0,1,1.88.42c.79,1,1.59,1.92,2.4,2.86a1.26,1.26,0,0,1-.06,1.89,20,20,0,0,0-5.36,8.86c-.22.73-.4,1.48-.6,2.26ZM36,30.08l-4.82,2.38a1.51,1.51,0,0,1-1.58-.1A24.07,24.07,0,0,0,27,30.9a16,16,0,0,0-11.88-.78,28,28,0,0,0-3,1.28,1.29,1.29,0,0,1-1.93-1.13c0-.1,0-.2,0-.31l-2.77.36.46,9.82c.65,0,1.26,0,1.87,0,.26,0,.36-.07.42-.34a3.21,3.21,0,0,1,2.58-2.64,6.49,6.49,0,0,1,3.24.21,17.74,17.74,0,0,0,5.55.82A1.56,1.56,0,0,1,23,39.42,1.43,1.43,0,0,1,22.51,41c-.87.8-1.7,1.64-2.54,2.47a1.69,1.69,0,0,0-.17.26H30.66c.66,0,.66,0,.8-.66a23.62,23.62,0,0,1,5.69-11.32,1.46,1.46,0,0,0,.12-.18ZM32,60.65a46.19,46.19,0,0,1-1.16-7.14,40.1,40.1,0,0,1,.06-7.23l-.34,0H18.27a.42.42,0,0,0-.45.26c-.52,1.14-1.13,2.25-1.56,3.42A24.65,24.65,0,0,0,15,60.51a.65.65,0,0,0,0,.15ZM10,84H36.29V78H10Zm6.25-72.51A11.38,11.38,0,0,0,20,10.89a5.12,5.12,0,0,0,2.25-1.3,1.06,1.06,0,0,0,0-1.7,5.9,5.9,0,0,0-1.71-1.1,11.66,11.66,0,0,0-8.45,0A4.07,4.07,0,0,0,10.28,8a1,1,0,0,0,0,1.56,5.52,5.52,0,0,0,1.38,1A10.21,10.21,0,0,0,16.26,11.45ZM29,15.92a12,12,0,0,0,4-.68,5,5,0,0,0,1.88-1.12,1.13,1.13,0,0,0,0-1.85,5.75,5.75,0,0,0-1.39-.92,10.27,10.27,0,0,0-4.41-.87,10.12,10.12,0,0,0-4.7,1A5.58,5.58,0,0,0,23,12.5a.91.91,0,0,0,0,1.4,5.45,5.45,0,0,0,1.35,1A10.49,10.49,0,0,0,29,15.92Zm7.64-9.77L36.58,6H24.69l-.06.1a11,11,0,0,0,1,.7,10.05,10.05,0,0,0,3.72,1,11.31,11.31,0,0,0,6.19-1A9.19,9.19,0,0,0,36.64,6.15Z"/>
    <path class="cls-1"
          d="M140,4.49v81a1.63,1.63,0,0,1-1,1H95.88a1.47,1.47,0,0,1-1-1.59q0-39.91,0-79.82a1.47,1.47,0,0,1,1-1.59H139A1.63,1.63,0,0,1,140,4.49ZM102.28,84c0-.17,0-.32,0-.47q0-3.31,0-6.63a1.26,1.26,0,0,1,1.43-1.43h28.58a1.28,1.28,0,0,1,1.45,1.45q0,3.31,0,6.63V84h3.65V46.28h-9a35,35,0,0,0-.05,7.47,41.73,41.73,0,0,0,1.45,7.81,1.09,1.09,0,0,1-.4,1.29,2,2,0,0,1-1,.31q-8.68,0-17.36,0h-2.29A1.25,1.25,0,0,1,107.4,62c-.07-.68-.14-1.36-.17-2a26.73,26.73,0,0,1,1.91-12c.23-.55.48-1.08.74-1.65H97.48V84ZM97.47,6V43.72l.18,0h13.51a.6.6,0,0,0,.39-.21c.54-.66,1.06-1.33,1.6-2,.25-.3.52-.58.8-.89-.58-.11-1.12-.19-1.65-.31-1.05-.23-2.09-.54-3.15-.72-1.35-.23-1.76.21-1.62,1.56a1.26,1.26,0,0,1-1.23,1.48c-1.62,0-3.23,0-4.85,0a1.23,1.23,0,0,1-1.24-1.25q-.28-6-.56-12a1.25,1.25,0,0,1,1.19-1.4l5-.62c1.05-.14,1.37,0,1.85.91h0l.32-.12a18,18,0,0,1,6-1.3,20,20,0,0,1,11.16,2.91.6.6,0,0,0,.66,0c1.58-.79,3.16-1.57,4.75-2.34a1.31,1.31,0,0,1,1.82.4c.8,1,1.6,1.94,2.43,2.89a1.25,1.25,0,0,1,0,1.89,20.31,20.31,0,0,0-5.58,9.59c-.14.5-.24,1-.37,1.52h8.58V6c-1,0-1.93,0-2.88,0-.08,0-.19.12-.24.22a12,12,0,0,1-.66,1.23,6.33,6.33,0,0,1-2.67,2l-.36.17c.35.3.69.55,1,.85a3.63,3.63,0,0,1,0,5.47,7.33,7.33,0,0,1-2.71,1.66,14.82,14.82,0,0,1-7.4.65A10.23,10.23,0,0,1,117,16.58a4.6,4.6,0,0,1-1.84-2.32c-.08-.24-.12-.48-.19-.75l-.39.08A15.42,15.42,0,0,1,107,13.4a7.52,7.52,0,0,1-3.82-2.25,3.55,3.55,0,0,1,0-4.83l.22-.29Zm7.47,34.08c0-.11.06-.2.08-.3a3.23,3.23,0,0,1,2.65-2.67,6.58,6.58,0,0,1,3.2.24,17.59,17.59,0,0,0,5.52.82,1.56,1.56,0,0,1,1.5,1.25,1.42,1.42,0,0,1-.52,1.56c-.84.78-1.65,1.58-2.47,2.38a3.22,3.22,0,0,0-.26.34h11.53a23.94,23.94,0,0,1,6-12.13l-1.27-1.52-4.78,2.36a1.55,1.55,0,0,1-1.65-.1,22,22,0,0,0-2.6-1.43A16,16,0,0,0,110,30.11a28.62,28.62,0,0,0-3,1.29,1.28,1.28,0,0,1-1.92-1.1c0-.1,0-.2,0-.34l-2.78.35.46,9.8Zm22,20.53a46.24,46.24,0,0,1-1.16-7.15,38.28,38.28,0,0,1,.07-7.25h-.5c-3.83,0-7.65,0-11.48,0a1.42,1.42,0,0,0-1.5.9,24.44,24.44,0,0,0-2.52,13c0,.17,0,.35.06.53ZM131.15,78H104.87v6h26.28Zm-20-66.44c1-.14,1.94-.22,2.89-.42a5.74,5.74,0,0,0,3-1.46,1.1,1.1,0,0,0,0-1.81,5.67,5.67,0,0,0-1.66-1,11.53,11.53,0,0,0-8.41,0,5.73,5.73,0,0,0-1.64,1,1.11,1.11,0,0,0,0,1.88,5.83,5.83,0,0,0,1.39.91A12,12,0,0,0,111.12,11.53ZM123.9,10.4c-1,.14-2,.23-2.93.43a5.82,5.82,0,0,0-2.86,1.35,1.18,1.18,0,0,0,0,2,5.48,5.48,0,0,0,1.52.92,11.73,11.73,0,0,0,8.49,0,3.94,3.94,0,0,0,1.8-1.23,1,1,0,0,0,0-1.44,5.58,5.58,0,0,0-1.39-1A11.56,11.56,0,0,0,123.9,10.4ZM119.51,6a3,3,0,0,0,1.38,1,11.8,11.8,0,0,0,7.28.63A7.85,7.85,0,0,0,131,6.54a7.72,7.72,0,0,0,.59-.51Z"/>
    <rect class="cls-2" width="140" height="90"/>
</svg>
