<svg id="Layer_1" data-name="Layer 1" xmlns="http://www.w3.org/2000/svg" viewBox="0 0 140 90" width="140px" height="90px">
    <defs>
        <style>.cls-1{fill:#0CA8E8;}.cls-2{fill:none;}</style>
    </defs>
    <title>vegas_02</title>
    <path class="cls-1"
          d="M77.8,78.91c-.08.45-.12.88-.22,1.3a4.67,4.67,0,0,1-5.3,3.48c-1.79-.27-3.59-.5-5.38-.75l-5.33-.74-5.33-.74-5.31-.73L45.56,80l-5.33-.74-5-.69c-1.14-.16-2.29-.28-3.43-.49A4.59,4.59,0,0,1,28.08,73c.26-2,.56-4.09.84-6.13s.58-4.21.87-6.31q.48-3.48,1-6.95.5-3.63,1-7.26.44-3.15.88-6.31.48-3.48,1-7,.5-3.63,1-7.26.46-3.31.91-6.62c.26-1.89.48-3.78.81-5.66a4.58,4.58,0,0,1,5.1-3.69c2.38.31,4.75.65,7.13,1l7,1,6.62.92c.16,0,.21,0,.25-.18q.27-1.31.57-2.62a4.66,4.66,0,0,1,5.56-3.52l17.57,3.79,20,4.32c.76.16,1.53.32,2.29.5a4.65,4.65,0,0,1,3.48,5.54q-2.66,12.3-5.31,24.6L101.82,67c-.85,3.94-1.69,7.89-2.56,11.83a4.63,4.63,0,0,1-5.5,3.51L77.95,78.93ZM53,69a1.88,1.88,0,0,0,1.4,2c.53.13,1.06.24,1.59.35l20.43,4.4,17.86,3.85a1.84,1.84,0,0,0,2.22-1.41c.08-.33.15-.65.22-1l2.88-13.36L102.83,49,106.08,34q1.51-7,3-14a1.85,1.85,0,0,0-1.47-2.28l-18.56-4L67.9,9.11a1.83,1.83,0,0,0-2.24,1.43q-1.5,6.92-3,13.84L59.56,38.78l-3.24,15-3,13.82C53.22,68.14,53.11,68.67,53,69Zm8.68-53.57-.15,0-3.67-.5-8.57-1.19-8.06-1.12A1.86,1.86,0,0,0,39,14.27c-.08.52-.14,1-.22,1.57q-.46,3.31-.92,6.62T37,29.08q-.44,3.15-.88,6.31-.46,3.31-.91,6.62-.55,4-1.1,7.9-.53,3.8-1,7.59-.57,4.12-1.15,8.23c-.34,2.46-.68,4.93-1,7.39a1.86,1.86,0,0,0,1.61,2.22c.64.1,1.28.18,1.93.27l6,.83,5.67.78,6.62.92L59,79l6.95,1,6.73.93a1.85,1.85,0,0,0,2.13-1.16,11,11,0,0,0,.28-1.45L73,77.87l-19-4.1a4.65,4.65,0,0,1-3.63-5.58L52.77,57c.07-.34.14-.67.22-1l-.31.11a9.51,9.51,0,0,1-4.7.54,9.36,9.36,0,0,1-6.43-3.87,12.31,12.31,0,0,1,.58-15.19,37.38,37.38,0,0,1,7.2-6.82A64.39,64.39,0,0,1,58.84,25c.29-.15.53-.25.75.07h.06ZM42,45.41a9.31,9.31,0,0,0,1.63,5.43,6.69,6.69,0,0,0,6,3,7.94,7.94,0,0,0,3.9-1.3.58.58,0,0,0,.28-.42q1.37-6.38,2.75-12.75,1.18-5.49,2.36-11a.31.31,0,0,0-.07-.23s-.14,0-.19,0a56.46,56.46,0,0,0-8.3,5.21,34.55,34.55,0,0,0-6.23,6.07A9.29,9.29,0,0,0,42,45.41Z"/>
    <path class="cls-1"
          d="M83.84,31.66a11.23,11.23,0,0,1,3.67-1.21,9.4,9.4,0,0,1,9.55,4.17A11.07,11.07,0,0,1,99,40.25a12.39,12.39,0,0,1-1.4,6.93,15,15,0,0,1-2.5,3.23,37.43,37.43,0,0,1-7.21,5.77,63.79,63.79,0,0,1-10.27,5.15.22.22,0,0,1-.29,0,60.33,60.33,0,0,1-8.4-10.79,34.15,34.15,0,0,1-3.53-8,11.71,11.71,0,0,1,.41-7.71,11.92,11.92,0,0,1,4.44-5.7,9.61,9.61,0,0,1,11.56.48,12,12,0,0,1,2,1.93Zm-.87,4c-.21-.39-.42-.75-.61-1.12a8.78,8.78,0,0,0-2.19-2.66,6.83,6.83,0,0,0-8.63-.27,9.23,9.23,0,0,0-3,3.72,9.09,9.09,0,0,0-.5,6.51,30.54,30.54,0,0,0,2.51,6A53,53,0,0,0,78,58c.09.1.16.09.27,0a57.79,57.79,0,0,0,8.28-4.33,34.89,34.89,0,0,0,7-5.81A9.61,9.61,0,0,0,95,36.62a6.6,6.6,0,0,0-6-3.5,8.26,8.26,0,0,0-4.77,1.61C83.8,35,83.4,35.34,83,35.67Z"/>
    <rect class="cls-2" width="140" height="90"/>
</svg>
