<svg id="Layer_1" data-name="Layer 1" xmlns="http://www.w3.org/2000/svg" viewBox="0 0 128 249.79"><defs><style>.cls-1{fill:#ffba08;}</style></defs><title>vegas_404</title><path class="cls-1" d="M21.55,249.79a4.82,4.82,0,0,1-4.71-5.84l21.67-99.69H4.82A4.82,4.82,0,0,1,0,139.09L10.09,4.46A4.82,4.82,0,0,1,14.9,0h86.83a4.82,4.82,0,0,1,4.66,6.07L83.81,89.47h39.37a4.82,4.82,0,0,1,4,7.51L25.55,247.66A4.83,4.83,0,0,1,21.55,249.79ZM10,134.63H44.49a4.82,4.82,0,0,1,4.71,5.84l-17.6,81L114.11,99.1H77.51A4.82,4.82,0,0,1,72.85,93L95.43,9.63H19.38Z" transform="translate(0)"/></svg>
