<svg width="144" height="144" viewBox="0 0 144 144" fill="none" xmlns="http://www.w3.org/2000/svg">
<rect width="144" height="144" rx="72" fill="#694EB4"/>
<path d="M72.5 126C102.599 126 127 101.6 127 71.5001C127 41.4006 102.599 17.0001 72.5 17.0001C42.4005 17.0001 18 41.4006 18 71.5001C18 101.6 42.4005 126 72.5 126Z" fill="url(#paint0_linear_18989_97571)"/>
<path d="M88.9252 52.578C86.6179 51.5604 83.5773 51 80.3634 51C77.1495 51 74.1089 51.5604 71.8015 52.578C69.1739 53.7367 67.7268 55.3997 67.7268 57.2604V67.8645C66.5083 67.481 65.2124 67.2738 63.8689 67.2738C56.773 67.2738 51 73.0441 51 80.1369C51 87.2296 56.773 93 63.8689 93C68.7507 93 73.0061 90.2688 75.1866 86.255C76.7997 86.5954 78.5686 86.7741 80.3634 86.7741C83.5773 86.7741 86.6179 86.2137 88.9253 85.1962C91.553 84.0374 93 82.3745 93 80.5137V57.2604C93 55.3997 91.5529 53.7367 88.9252 52.578ZM72.7954 54.8295C74.7964 53.947 77.4842 53.4609 80.3634 53.4609C83.2426 53.4609 85.9304 53.947 87.9314 54.8295C89.5392 55.5385 90.5379 56.47 90.5379 57.2604C90.5379 58.0508 89.5392 58.9822 87.9314 59.6913C85.9303 60.5738 83.2426 61.0599 80.3634 61.0599C77.4842 61.0599 74.7964 60.5738 72.7954 59.6913C71.1876 58.9822 70.1889 58.0509 70.1889 57.2604C70.1889 56.4699 71.1876 55.5385 72.7954 54.8295ZM63.8688 90.5391C58.1304 90.5391 53.462 85.8727 53.462 80.1369C53.462 74.4011 58.1304 69.7347 63.8688 69.7347C69.6072 69.7347 74.2757 74.4011 74.2757 80.1369C74.2757 85.8727 69.6072 90.5391 63.8688 90.5391ZM87.9314 82.9446C85.9303 83.8271 83.2426 84.3131 80.3634 84.3131C78.9102 84.3131 77.4822 84.1853 76.1635 83.9404C76.4824 82.9127 76.675 81.83 76.7244 80.7108C77.8935 80.8756 79.1111 80.9607 80.3635 80.9607C83.5774 80.9607 86.618 80.4003 88.9254 79.3828C89.526 79.1179 90.064 78.8265 90.538 78.5126V80.5136C90.5379 81.3041 89.5392 82.2356 87.9314 82.9446ZM87.9314 77.1312C85.9304 78.0137 83.2426 78.4998 80.3634 78.4998C79.0533 78.4998 77.7896 78.3985 76.5922 78.2015C76.4052 76.9678 76.0416 75.7914 75.5291 74.6981C77.0431 74.9921 78.6862 75.1474 80.3634 75.1474C83.5773 75.1474 86.6179 74.587 88.9253 73.5695C89.5259 73.3046 90.0639 73.0132 90.5379 72.6993V74.7003C90.5379 75.4908 89.5392 76.4222 87.9314 77.1312ZM87.9314 71.318C85.9303 72.2005 83.2426 72.6865 80.3634 72.6865C77.8179 72.6865 75.3881 72.2987 73.4798 71.593C72.5392 70.537 71.4278 69.6366 70.1889 68.9355V66.8861C70.6629 67.1999 71.201 67.4914 71.8015 67.7562C74.1089 68.7737 77.1495 69.3341 80.3634 69.3341C83.5773 69.3341 86.6179 68.7737 88.9253 67.7562C89.5259 67.4913 90.0639 67.1999 90.5379 66.8861V68.8871C90.5379 69.6774 89.5392 70.6089 87.9314 71.318ZM87.9314 65.5046C85.9304 66.3871 83.2426 66.8731 80.3634 66.8731C77.4842 66.8731 74.7964 66.3871 72.7954 65.5046C71.1876 64.7956 70.1889 63.8641 70.1889 63.0737V61.0727C70.6629 61.3865 71.201 61.678 71.8015 61.9428C74.1089 62.9604 77.1495 63.5207 80.3634 63.5207C83.5773 63.5207 86.6179 62.9604 88.9253 61.9428C89.5259 61.678 90.0639 61.3865 90.5379 61.0727V63.0737C90.5379 63.8641 89.5392 64.7956 87.9314 65.5046Z" fill="black" fill-opacity="0.4"/>
<path d="M72.5 17.0001C42.1357 17.0001 18 41.1359 18 71.5001C18 101.864 42.1357 126 72.5 126C102.864 126 127 101.864 127 71.5001C127 41.1359 102.864 17.0001 72.5 17.0001ZM72.5 110.429C50.7 110.429 33.5715 93.3001 33.5715 71.5001C33.5715 49.7001 50.7 32.5716 72.5 32.5716C94.3 32.5716 111.428 49.7001 111.428 71.5001C111.428 93.3001 94.3 110.429 72.5 110.429Z" fill="white" fill-opacity="0.2"/>
<path d="M72.5 125.221C102.864 126 127 101.085 127 71.5H126.221C122.328 71.5 119.214 74.6146 118.436 78.5073C116.879 89.4073 111.428 99.5285 103.643 106.536C97.4146 112.764 88.8503 116.657 79.5073 118.215C75.6146 118.214 72.5 121.328 72.5 125.221Z" fill="black" fill-opacity="0.2"/>
<path d="M72.5 17.7789C42.1357 17.0001 18 41.9147 18 71.5001H18.7788C22.6715 71.5001 25.7861 68.3855 26.5642 64.4928C28.1212 53.5928 33.5715 43.4716 41.3569 36.4643C47.5854 30.2358 56.1497 26.3431 65.4927 24.7855C69.3861 24.7862 72.5 21.6716 72.5 17.7789Z" fill="black" fill-opacity="0.1"/>
<path d="M39.0219 76.9499C39.0219 55.1499 56.1504 38.0214 77.9503 38.0214C87.2934 38.0214 95.8576 41.136 102.864 47.3645C95.0788 38.0214 84.957 32.5718 72.5 32.5718C50.7 32.5718 33.5716 49.7003 33.5716 71.5002C33.5716 83.9572 39.0212 94.0784 47.5854 101.086C42.1358 94.8572 39.0219 86.2929 39.0219 76.9499Z" fill="black" fill-opacity="0.4"/>
<defs>
<linearGradient id="paint0_linear_18989_97571" x1="34.6675" y1="33.1385" x2="100.279" y2="120.18" gradientUnits="userSpaceOnUse">
<stop stop-color="#9600A8"/>
<stop offset="1" stop-color="#FF477E"/>
</linearGradient>
</defs>
</svg>
