<svg width="144" height="144" viewBox="0 0 144 144" fill="none" xmlns="http://www.w3.org/2000/svg">
<rect width="144" height="144" rx="72" fill="#694EB4"/>
<path d="M72.5 126C102.599 126 127 101.6 127 71.5001C127 41.4006 102.599 17.0001 72.5 17.0001C42.4005 17.0001 18 41.4006 18 71.5001C18 101.6 42.4005 126 72.5 126Z" fill="url(#paint0_linear_33796_116449)"/>
<path d="M72.5 17.0001C42.1357 17.0001 18 41.1359 18 71.5001C18 101.864 42.1357 126 72.5 126C102.864 126 127 101.864 127 71.5001C127 41.1359 102.864 17.0001 72.5 17.0001ZM72.5 110.429C50.7 110.429 33.5715 93.3001 33.5715 71.5001C33.5715 49.7001 50.7 32.5716 72.5 32.5716C94.3 32.5716 111.428 49.7001 111.428 71.5001C111.428 93.3001 94.3 110.429 72.5 110.429Z" fill="white" fill-opacity="0.2"/>
<path d="M72.5 125.221C102.864 126 127 101.085 127 71.5H126.221C122.328 71.5 119.214 74.6146 118.436 78.5073C116.879 89.4073 111.428 99.5285 103.643 106.536C97.4146 112.764 88.8503 116.657 79.5073 118.215C75.6146 118.214 72.5 121.328 72.5 125.221Z" fill="black" fill-opacity="0.2"/>
<path d="M72.5 17.7789C42.1357 17.0001 18 41.9147 18 71.5001H18.7788C22.6715 71.5001 25.7861 68.3855 26.5642 64.4928C28.1212 53.5928 33.5715 43.4716 41.3569 36.4643C47.5854 30.2358 56.1497 26.3431 65.4927 24.7855C69.3861 24.7862 72.5 21.6716 72.5 17.7789Z" fill="black" fill-opacity="0.1"/>
<path d="M39.0219 76.9499C39.0219 55.1499 56.1503 38.0214 77.9503 38.0214C87.2934 38.0214 95.8576 41.136 102.864 47.3645C95.0788 38.0214 84.9569 32.5718 72.5 32.5718C50.7 32.5718 33.5715 49.7003 33.5715 71.5002C33.5715 83.9572 39.0212 94.0784 47.5854 101.086C42.1358 94.8572 39.0219 86.2929 39.0219 76.9499Z" fill="black" fill-opacity="0.4"/>
<path d="M89.2959 56.4175C88.8075 59.2802 88.6988 62.206 88.9465 65.0987C90.666 65.0017 92.4489 64.9532 94.2834 64.9483C93.2478 61.7416 91.5283 58.84 89.2959 56.4175Z" fill="black" fill-opacity="0.4"/>
<path d="M87.8921 55.0184C82.6819 50.2554 75.4182 48.1342 68.4753 49.3252C74.4229 52.4998 79.1893 58.3583 82.1558 65.7457C83.8104 65.5229 85.5249 65.3429 87.3036 65.2105C87.0169 61.8095 87.1998 58.3619 87.8921 55.0184Z" fill="black" fill-opacity="0.4"/>
<path d="M81.0987 67.5507C78.6213 67.9239 76.2911 68.3958 74.099 68.9456C77.7304 76.9952 77.516 87.3169 73.0429 95C76.4673 94.9003 79.8469 94.0406 82.9021 92.4625C86.2503 85.7321 83.4647 74.0317 81.0987 67.5507Z" fill="black" fill-opacity="0.4"/>
<path d="M94.7454 66.5915C92.8098 66.5874 90.9365 66.6342 89.1315 66.7345C89.8531 72.0414 91.7881 76.5534 94.3772 78.7712C95.5913 74.834 95.7134 70.5944 94.7454 66.5915Z" fill="black" fill-opacity="0.4"/>
<path d="M54.8015 57.1959C49.8074 63.1333 48.094 71.4357 50.4008 78.841C55.1049 74.8707 62.0051 70.6184 71.7336 67.8771C68.2047 61.4488 62.1496 57.4227 54.8015 57.1959Z" fill="black" fill-opacity="0.4"/>
<path d="M65.9078 49.9203C65.8847 49.9269 65.8617 49.9326 65.8395 49.94C62.2487 51.0043 58.9503 52.988 56.2688 55.5963C63.4831 56.0147 69.7644 60.6517 73.3612 67.4415C75.5936 66.8702 77.9674 66.3786 80.4899 65.9865C77.364 58.3993 72.254 52.5762 65.9078 49.9203Z" fill="black" fill-opacity="0.4"/>
<path d="M87.4786 66.8439C85.8495 66.9639 84.2739 67.1242 82.7525 67.3215C85.5658 75.2048 86.0738 83.2011 84.7736 91.3824C88.8266 88.7808 92.0117 84.946 93.7977 80.4094C90.607 78.0281 88.2793 72.9398 87.4786 66.8439Z" fill="black" fill-opacity="0.4"/>
<path d="M72.4929 69.3699C62.5392 72.1245 55.6102 76.4951 50.9966 80.4974C54.2359 88.6254 61.9745 94.4888 71.122 94.9845C76.1685 87.2013 76.3278 77.64 72.4929 69.3699ZM58.099 85.7977C57.947 85.9194 57.7653 85.9785 57.5853 85.9785C57.3445 85.9785 57.1062 85.8734 56.9434 85.6703C56.7584 85.4409 56.5562 85.1992 56.3466 84.9502C55.6488 84.1192 54.858 83.1779 54.3846 82.2376C54.1799 81.8324 54.3435 81.3383 54.7487 81.1336C55.1539 80.9281 55.6479 81.0925 55.8526 81.4978C56.2397 82.2672 56.9655 83.1303 57.605 83.8923C57.8228 84.1512 58.0332 84.4027 58.2256 84.6419C58.51 84.9962 58.4525 85.5133 58.099 85.7977ZM67.4034 91.1761C67.2867 91.518 66.9678 91.7334 66.6251 91.7334C66.5371 91.7334 66.4483 91.7186 66.3604 91.689C64.6837 91.1177 63.0102 90.2817 61.2454 89.1342C60.8657 88.8852 60.758 88.3763 61.0046 87.9957C61.252 87.6151 61.7607 87.5074 62.1422 87.7548C63.791 88.8275 65.3445 89.6043 66.8905 90.1321C67.3204 90.2784 67.5498 90.7462 67.4034 91.1761Z" fill="black" fill-opacity="0.4"/>
<defs>
<linearGradient id="paint0_linear_33796_116449" x1="34.6675" y1="33.1385" x2="100.279" y2="120.18" gradientUnits="userSpaceOnUse">
<stop stop-color="#9600A8"/>
<stop offset="1" stop-color="#FF477E"/>
</linearGradient>
</defs>
</svg>
