<svg width="144" height="144" viewBox="0 0 144 144" fill="none" xmlns="http://www.w3.org/2000/svg">
<rect width="144" height="144" rx="72" fill="#694EB4"/>
<path d="M72.5 126C102.599 126 127 101.6 127 71.5001C127 41.4006 102.599 17.0001 72.5 17.0001C42.4005 17.0001 18 41.4006 18 71.5001C18 101.6 42.4005 126 72.5 126Z" fill="url(#paint0_linear_18989_97233)"/>
<path d="M72.5 17.0001C42.1357 17.0001 18 41.1359 18 71.5001C18 101.864 42.1357 126 72.5 126C102.864 126 127 101.864 127 71.5001C127 41.1359 102.864 17.0001 72.5 17.0001ZM72.5 110.429C50.7 110.429 33.5715 93.3001 33.5715 71.5001C33.5715 49.7001 50.7 32.5716 72.5 32.5716C94.3 32.5716 111.428 49.7001 111.428 71.5001C111.428 93.3001 94.3 110.429 72.5 110.429Z" fill="white" fill-opacity="0.2"/>
<path d="M72.5 125.221C102.864 126 127 101.085 127 71.5H126.221C122.328 71.5 119.214 74.6146 118.436 78.5073C116.879 89.4073 111.428 99.5285 103.643 106.536C97.4146 112.764 88.8504 116.657 79.5073 118.215C75.6146 118.214 72.5 121.328 72.5 125.221Z" fill="black" fill-opacity="0.2"/>
<path d="M72.5 17.7789C42.1357 17.0001 18 41.9147 18 71.5001H18.7788C22.6715 71.5001 25.7861 68.3855 26.5642 64.4928C28.1212 53.5928 33.5715 43.4716 41.3569 36.4643C47.5854 30.2358 56.1497 26.3431 65.4927 24.7855C69.3861 24.7862 72.5 21.6716 72.5 17.7789Z" fill="black" fill-opacity="0.1"/>
<path d="M39.0219 76.9499C39.0219 55.1499 56.1504 38.0214 77.9503 38.0214C87.2934 38.0214 95.8576 41.136 102.864 47.3645C95.0788 38.0214 84.957 32.5718 72.5 32.5718C50.7 32.5718 33.5716 49.7003 33.5716 71.5002C33.5716 83.9572 39.0212 94.0784 47.5854 101.086C42.1358 94.8572 39.0219 86.2929 39.0219 76.9499Z" fill="black" fill-opacity="0.4"/>
<path d="M55.3677 74.68C55.2814 73.9532 55.2371 73.2312 55.2371 72.5961C55.2371 63.1161 62.9704 55.296 72.3451 55.296C76.7179 55.296 80.8117 57.0789 83.8231 59.8593L82.313 61.4129C81.9727 61.757 81.8418 62.26 81.9727 62.7369C82.1299 63.1868 82.4964 63.5313 82.9676 63.6371C83.2312 63.6906 91.8895 66.512 91.3382 66.3999C92.0395 66.6361 93.0767 65.8796 92.8834 64.8377C92.8302 64.5708 90.9133 54.8446 91.0241 55.4018C90.9195 54.9253 90.5788 54.5281 90.1076 54.3957C89.6627 54.2633 89.1649 54.3957 88.8246 54.7398L87.5416 56.0107C83.5875 52.2773 78.1581 50 72.3451 50C60.0641 50 50 60.1772 50 72.5961V72.6489C50 73.3954 50.0338 73.9722 50.073 74.4135C50.1251 74.9983 50.5513 75.4772 51.1207 75.5927L53.8106 76.1364C54.6861 76.3137 55.4734 75.5713 55.3677 74.68V74.68Z" fill="black" fill-opacity="0.4"/>
<path d="M93.8871 69.4199L91.1893 68.8644C90.3127 68.6838 89.5199 69.4264 89.6277 70.3213C89.7211 71.0936 89.7627 71.8444 89.7627 72.4168C89.7627 81.891 82.0292 89.707 72.6542 89.707C68.2813 89.707 64.1873 87.9251 61.1758 85.1198L62.686 83.5936C63.0263 83.2497 63.1572 82.747 63.0263 82.2704C62.8691 81.8204 62.5025 81.4765 62.0313 81.3707C61.7677 81.3169 53.1092 78.4975 53.6605 78.6095C53.2152 78.5302 52.7699 78.6625 52.4821 78.9799C52.1677 79.2711 52.0368 79.7473 52.1152 80.1708C52.1684 80.4372 54.0857 90.0695 53.9749 89.5127C54.0792 89.9892 54.4198 90.3862 54.8911 90.5182C55.4376 90.6567 55.8939 90.4892 56.1741 90.1743L57.4313 88.9041C61.3852 92.6357 66.8148 94.9999 72.6542 94.9999C84.9356 94.9999 95 84.8286 95 72.4168V72.3372C95 71.7507 94.9789 71.1749 94.9304 70.6025C94.8807 70.0178 94.4562 69.5374 93.8871 69.4199Z" fill="black" fill-opacity="0.4"/>
<defs>
<linearGradient id="paint0_linear_18989_97233" x1="34.6675" y1="33.1385" x2="100.279" y2="120.18" gradientUnits="userSpaceOnUse">
<stop stop-color="#9600A8"/>
<stop offset="1" stop-color="#FF477E"/>
</linearGradient>
</defs>
</svg>
