<svg width="144" height="144" viewBox="0 0 144 144" fill="none" xmlns="http://www.w3.org/2000/svg">
<rect width="144" height="144" rx="72" fill="#694EB4"/>
<path d="M72.5 126C102.599 126 127 101.6 127 71.5001C127 41.4006 102.599 17.0001 72.5 17.0001C42.4005 17.0001 18 41.4006 18 71.5001C18 101.6 42.4005 126 72.5 126Z" fill="url(#paint0_linear_29393_118058)"/>
<path d="M72.5 17.0001C42.1357 17.0001 18 41.1359 18 71.5001C18 101.864 42.1357 126 72.5 126C102.864 126 127 101.864 127 71.5001C127 41.1359 102.864 17.0001 72.5 17.0001ZM72.5 110.429C50.7 110.429 33.5715 93.3001 33.5715 71.5001C33.5715 49.7001 50.7 32.5716 72.5 32.5716C94.3 32.5716 111.428 49.7001 111.428 71.5001C111.428 93.3001 94.3 110.429 72.5 110.429Z" fill="white" fill-opacity="0.2"/>
<path d="M72.5 125.221C102.864 126 127 101.085 127 71.5H126.221C122.328 71.5 119.214 74.6146 118.436 78.5073C116.879 89.4073 111.428 99.5285 103.643 106.536C97.4146 112.764 88.8503 116.657 79.5073 118.215C75.6146 118.214 72.5 121.328 72.5 125.221Z" fill="black" fill-opacity="0.2"/>
<path d="M72.5 17.7789C42.1357 17.0001 18 41.9147 18 71.5001H18.7788C22.6715 71.5001 25.7861 68.3855 26.5642 64.4928C28.1212 53.5928 33.5715 43.4716 41.3569 36.4643C47.5854 30.2358 56.1497 26.3431 65.4927 24.7855C69.3861 24.7862 72.5 21.6716 72.5 17.7789Z" fill="black" fill-opacity="0.1"/>
<path d="M39.0219 76.9499C39.0219 55.1499 56.1503 38.0214 77.9503 38.0214C87.2934 38.0214 95.8576 41.136 102.864 47.3645C95.0788 38.0214 84.9569 32.5718 72.5 32.5718C50.7 32.5718 33.5715 49.7003 33.5715 71.5002C33.5715 83.9572 39.0212 94.0784 47.5854 101.086C42.1358 94.8572 39.0219 86.2929 39.0219 76.9499Z" fill="black" fill-opacity="0.4"/>
<path d="M72.0815 76.895C71.8997 77.3388 71.8088 77.935 71.8088 78.6836H73.8621L73.8942 78.1943C73.953 77.6703 74.1856 77.2131 74.592 76.8228L75.2417 76.2052C75.7496 75.7132 76.1052 75.2668 76.3084 74.8657C76.5116 74.4594 76.6132 74.0289 76.6132 73.5744C76.6132 72.5745 76.3004 71.8018 75.6748 71.2564C75.0492 70.7057 74.1696 70.4303 73.036 70.4303C71.9131 70.4303 71.0255 70.719 70.3731 71.2965C69.7261 71.874 69.3973 72.6734 69.3866 73.6947H71.7126C71.7233 73.2669 71.8462 72.9328 72.0815 72.6921C72.3221 72.4462 72.6403 72.3232 73.036 72.3232C73.8701 72.3232 74.2872 72.775 74.2872 73.6787C74.2872 73.9781 74.207 74.2642 74.0466 74.5369C73.8862 74.8042 73.5627 75.1545 73.0761 75.5876C72.5948 76.0154 72.2633 76.4512 72.0815 76.895Z" fill="black" fill-opacity="0.4"/>
<path d="M71.9371 80.2636C71.6965 80.4936 71.5762 80.7877 71.5762 81.1459C71.5762 81.4988 71.6938 81.7903 71.9291 82.0202C72.1697 82.2501 72.4852 82.3651 72.8756 82.3651C73.2659 82.3651 73.5787 82.2501 73.814 82.0202C74.0546 81.7903 74.1749 81.4988 74.1749 81.1459C74.1749 80.7877 74.0519 80.4936 73.806 80.2636C73.5653 80.0284 73.2552 79.9107 72.8756 79.9107C72.4959 79.9107 72.1831 80.0284 71.9371 80.2636Z" fill="black" fill-opacity="0.4"/>
<path fill-rule="evenodd" clip-rule="evenodd" d="M87.1406 52H88.5469C88.5612 52.0072 88.5748 52.0151 88.5882 52.0228C88.6184 52.0404 88.6472 52.0571 88.6797 52.0625C91.6797 52.4688 93.1562 55.6953 92.6172 58C92.2969 59.375 91.4688 60.3906 90.375 61.2266C90.3221 61.2662 90.2693 61.3083 90.201 61.3628C90.1483 61.4048 90.0859 61.4545 90.0078 61.5156C90.2075 61.5156 90.3969 61.5188 90.579 61.5219C90.9666 61.5284 91.321 61.5344 91.6719 61.5078C92.2891 61.4609 92.7344 61.6719 93 62.2344V71.5312C92.7266 72.0859 92.2812 72.3047 91.6719 72.25C91.461 72.2284 91.2464 72.2329 91.0178 72.2378C90.916 72.24 90.8113 72.2422 90.7031 72.2422V72.7891C90.7031 74.2812 90.7026 75.7734 90.7021 77.2655C90.7007 81.7413 90.6992 86.2172 90.7109 90.6875C90.7109 91.2969 90.5312 91.75 89.9531 92H56.0469C55.4766 91.75 55.2891 91.3047 55.2891 90.6875C55.2969 84.7188 55.2969 78.75 55.2969 72.7891C55.2969 72.6305 55.2836 72.4653 55.2692 72.2873L55.2656 72.2422C55.1594 72.2422 55.0576 72.2399 54.9589 72.2378C54.7383 72.2329 54.5332 72.2284 54.3281 72.25C53.7188 72.3047 53.2734 72.0859 53 71.5312V62.2344C53.2656 61.6719 53.7109 61.4531 54.3281 61.5078C54.5234 61.5246 54.7188 61.5214 54.9141 61.5182C54.9922 61.5169 55.0703 61.5156 55.1484 61.5156H55.9141C55.7502 61.362 55.5888 61.2176 55.4316 61.0769C55.1092 60.7884 54.8043 60.5155 54.5312 60.2109C51.8906 57.2578 53.7891 52.9453 56.7109 52.1953C56.9531 52.125 57.2031 52.0625 57.4531 52H58.8594C58.9786 52.026 59.0978 52.0508 59.2169 52.0756C59.5269 52.1401 59.8358 52.2044 60.1406 52.2891C62.9453 53.0312 65.1484 54.7031 67.0703 56.7969C67.3483 57.0954 67.6059 57.4143 67.8655 57.7357C67.9999 57.9021 68.1349 58.0691 68.2734 58.2344C69.0547 57.2578 70.0703 56.8672 71.2969 56.9062C72.4141 56.9453 73.5391 56.9453 74.6562 56.9062C75.8984 56.8672 76.9297 57.2344 77.7109 58.2266C77.8828 58.0283 78.0501 57.8274 78.2169 57.6271C78.5431 57.2354 78.8673 56.8462 79.2187 56.4844C80.9375 54.6797 82.8828 53.2109 85.2969 52.4609C85.7354 52.3242 86.1864 52.2208 86.6378 52.1172C86.8055 52.0787 86.9734 52.0402 87.1406 52ZM67.5859 83.3358C68.2156 83.8278 68.9139 84.236 69.6641 84.5435C70.6928 84.9652 71.8191 85.1978 72.9997 85.1978C77.8598 85.1978 81.7997 81.2579 81.7997 76.3977C81.7997 71.5376 77.8598 67.5977 72.9997 67.5977C71.8191 67.5977 70.6928 67.8302 69.6641 68.2519C68.9232 68.5556 68.2329 68.9575 67.6094 69.4414C67.2976 69.6833 67.0025 69.9457 66.7262 70.2266C66.1344 70.8281 65.6285 71.5144 65.2283 72.2656C64.5718 73.4977 64.1997 74.9043 64.1997 76.3977C64.1997 79.2163 65.5248 81.7252 67.5859 83.3358ZM67.5859 86.4929C63.991 84.5609 61.5469 80.7648 61.5469 76.3978C61.5469 74.9409 61.819 73.5475 62.315 72.2656H57.3281V89.9766H67.5859V86.4929ZM69.6641 87.3574V89.9766H76.3438V87.355C75.2859 87.6774 74.1632 87.8508 72.9999 87.8508C71.8396 87.8508 70.7195 87.6783 69.6641 87.3574ZM78.3984 86.5012V89.9688H88.6641V72.2656H83.6848C84.1808 73.5475 84.4529 74.9409 84.4529 76.3978C84.4529 80.771 82.0018 84.5718 78.3984 86.5012ZM82.6547 70.2344H90.9688V63.5312H78.4062V66.2986C80.1366 67.2269 81.6007 68.5868 82.6547 70.2344ZM76.3438 65.4407V63.5312H69.6641V65.4382C70.7195 65.1174 71.8396 64.9448 72.9999 64.9448C74.1632 64.9448 75.2859 65.1183 76.3438 65.4407ZM67.6094 66.2902V63.5312H55.0312V70.2266H63.3501C64.4069 68.5775 65.8749 67.2171 67.6094 66.2902ZM78.6172 60.9153C78.6704 60.9468 78.7049 60.9672 78.7422 60.9766L78.789 60.9922C78.9598 61.0493 79.1257 61.1048 79.3047 61.1406C81.5547 61.5938 83.8047 61.6094 86.0391 61.0781C87.5078 60.7266 88.8359 60.0938 89.8906 58.9844C90.6016 58.2422 90.8828 57.3516 90.6484 56.3281C90.2812 54.6797 89.1406 53.8359 87.4609 54.0234C86.8984 54.0859 86.3281 54.2188 85.7891 54.3984C83.2812 55.2344 81.375 56.9062 79.7578 58.9297C79.4435 59.3293 79.1655 59.7652 78.8817 60.2101C78.7494 60.4177 78.6157 60.6272 78.4766 60.8359C78.5364 60.8675 78.5811 60.8939 78.6172 60.9153ZM67.3894 60.7536C67.3648 60.6852 67.3461 60.6332 67.3203 60.5859L67.2852 60.518C67.1887 60.3312 67.0951 60.15 66.9766 59.9688C65.875 58.2812 64.5 56.8516 62.8359 55.7109C61.4922 54.7812 60.0234 54.125 58.375 54C57.3359 53.9219 56.4453 54.2109 55.8438 55.1406C54.9297 56.5703 55.0938 58.0312 56.3203 59.2031C57.1719 60.0156 58.2031 60.5547 59.3203 60.8984C61.3672 61.5391 63.4688 61.5859 65.5781 61.3281C66.0353 61.2717 66.4803 61.1745 66.9366 61.0747C67.1119 61.0365 67.2888 60.9978 67.4687 60.9609C67.4336 60.8766 67.4095 60.8095 67.3894 60.7536ZM72.9766 61.4688H74.0312C74.1484 61.4688 74.2656 61.4696 74.3828 61.4705C74.6172 61.4722 74.8516 61.474 75.0859 61.4688C75.8125 61.4453 76.3594 60.9141 76.3672 60.2266C76.375 59.5 75.8516 58.9453 75.0938 58.9297C73.7031 58.9141 72.3125 58.9141 70.9219 58.9297C70.1641 58.9375 69.6328 59.4922 69.6406 60.2109C69.6484 60.9219 70.1875 61.4531 70.9453 61.4688C71.3929 61.474 71.8439 61.4722 72.296 61.4705C72.5224 61.4696 72.7499 61.4688 72.9766 61.4688Z" fill="black" fill-opacity="0.4"/>
<defs>
<linearGradient id="paint0_linear_29393_118058" x1="34.6675" y1="33.1385" x2="100.279" y2="120.18" gradientUnits="userSpaceOnUse">
<stop stop-color="#9600A8"/>
<stop offset="1" stop-color="#FF477E"/>
</linearGradient>
</defs>
</svg>
