<svg width="144" height="144" viewBox="0 0 144 144" fill="none" xmlns="http://www.w3.org/2000/svg">
<rect width="144" height="144" rx="72" fill="#694EB4"/>
<path d="M72.5 126C102.599 126 127 101.6 127 71.5001C127 41.4006 102.599 17.0001 72.5 17.0001C42.4005 17.0001 18 41.4006 18 71.5001C18 101.6 42.4005 126 72.5 126Z" fill="url(#paint0_linear_18989_97265)"/>
<path d="M72.5 17.0001C42.1357 17.0001 18 41.1359 18 71.5001C18 101.864 42.1357 126 72.5 126C102.864 126 127 101.864 127 71.5001C127 41.1359 102.864 17.0001 72.5 17.0001ZM72.5 110.429C50.7 110.429 33.5715 93.3001 33.5715 71.5001C33.5715 49.7001 50.7 32.5716 72.5 32.5716C94.3 32.5716 111.428 49.7001 111.428 71.5001C111.428 93.3001 94.3 110.429 72.5 110.429Z" fill="white" fill-opacity="0.2"/>
<path d="M72.5 125.221C102.864 126 127 101.085 127 71.5H126.221C122.328 71.5 119.214 74.6146 118.436 78.5073C116.879 89.4073 111.428 99.5285 103.643 106.536C97.4146 112.764 88.8503 116.657 79.5073 118.215C75.6146 118.214 72.5 121.328 72.5 125.221Z" fill="black" fill-opacity="0.2"/>
<path d="M72.5 17.7789C42.1357 17.0001 18 41.9147 18 71.5001H18.7788C22.6715 71.5001 25.7861 68.3855 26.5642 64.4928C28.1212 53.5928 33.5715 43.4716 41.3569 36.4643C47.5854 30.2358 56.1497 26.3431 65.4927 24.7855C69.3861 24.7862 72.5 21.6716 72.5 17.7789Z" fill="black" fill-opacity="0.1"/>
<path d="M39.0219 76.9499C39.0219 55.1499 56.1504 38.0214 77.9503 38.0214C87.2934 38.0214 95.8576 41.136 102.864 47.3645C95.0788 38.0214 84.957 32.5718 72.5 32.5718C50.7 32.5718 33.5716 49.7003 33.5716 71.5002C33.5716 83.9572 39.0212 94.0784 47.5854 101.086C42.1358 94.8572 39.0219 86.2929 39.0219 76.9499Z" fill="black" fill-opacity="0.4"/>
<path d="M52 87H70.9883V81.7705H58.2715V57H52V87Z" fill="black" fill-opacity="0.4"/>
<path d="M75.6659 87H81.9374V77.2734H87.2095C94.0314 77.2734 98 73.1572 98 67.166C98 61.2041 94.1038 57 87.3689 57H75.6659V87ZM81.9374 72.1904V62.1855H86.1667C89.7877 62.1855 91.5402 64.1777 91.5402 67.166C91.5402 70.1396 89.7877 72.1904 86.1957 72.1904H81.9374Z" fill="black" fill-opacity="0.4"/>
<defs>
<linearGradient id="paint0_linear_18989_97265" x1="34.6675" y1="33.1385" x2="100.279" y2="120.18" gradientUnits="userSpaceOnUse">
<stop stop-color="#9600A8"/>
<stop offset="1" stop-color="#FF477E"/>
</linearGradient>
</defs>
</svg>
