<svg width="144" height="144" viewBox="0 0 144 144" fill="none" xmlns="http://www.w3.org/2000/svg">
<rect width="144" height="144" rx="72" fill="#694EB4"/>
<path d="M72.5 126C102.599 126 127 101.6 127 71.5001C127 41.4006 102.599 17.0001 72.5 17.0001C42.4005 17.0001 18 41.4006 18 71.5001C18 101.6 42.4005 126 72.5 126Z" fill="url(#paint0_linear_18989_97221)"/>
<path d="M73.4538 82.388C73.492 87.0144 76.6975 91.0001 82.6886 91.0001C88.6797 91.0001 92.0378 87.0144 91.9997 82.388V80.4663C92.0378 75.7688 88.7561 71.8542 82.6886 71.8542C76.7738 71.8542 73.492 75.84 73.4538 80.4663V82.388ZM53 61.5339C53.0382 66.1603 56.2436 70.0749 62.2348 70.0749C68.2259 70.0749 71.584 66.2314 71.5458 61.5339V59.6122C71.584 54.9147 68.3022 51.0001 62.2348 51.0001C56.3963 51.0001 53.0382 54.9147 53 59.6122V61.5339ZM55.137 89.2208H60.5557L87.4205 52.7795H82.0017L55.137 89.2208ZM80.0937 80.4663C80.1319 79.0428 80.6661 77.4058 82.6886 77.4058C84.8637 77.4058 85.3216 79.0428 85.2835 80.4663V82.388C85.3216 83.8115 84.7874 85.3773 82.6886 85.3773C80.6661 85.3773 80.1319 83.7403 80.0937 82.388V80.4663ZM59.7162 59.6122C59.7543 58.2599 60.2123 56.5517 62.2348 56.5517C64.4099 56.5517 64.8678 58.1887 64.8296 59.6122V61.5339C64.8678 62.9574 64.3336 64.5233 62.2348 64.5233C60.2886 64.5233 59.7543 62.9574 59.7162 61.5339V59.6122Z" fill="black" fill-opacity="0.4"/>
<path d="M72.5 17.0001C42.1357 17.0001 18 41.1359 18 71.5001C18 101.864 42.1357 126 72.5 126C102.864 126 127 101.864 127 71.5001C127 41.1359 102.864 17.0001 72.5 17.0001ZM72.5 110.429C50.7 110.429 33.5715 93.3001 33.5715 71.5001C33.5715 49.7001 50.7 32.5716 72.5 32.5716C94.3 32.5716 111.428 49.7001 111.428 71.5001C111.428 93.3001 94.3 110.429 72.5 110.429Z" fill="white" fill-opacity="0.2"/>
<path d="M72.5 125.221C102.864 126 127 101.085 127 71.5H126.221C122.328 71.5 119.214 74.6146 118.436 78.5073C116.879 89.4073 111.428 99.5285 103.643 106.536C97.4146 112.764 88.8503 116.657 79.5073 118.215C75.6146 118.214 72.5 121.328 72.5 125.221Z" fill="black" fill-opacity="0.2"/>
<path d="M72.5 17.7789C42.1357 17.0001 18 41.9147 18 71.5001H18.7788C22.6715 71.5001 25.7861 68.3855 26.5642 64.4928C28.1212 53.5928 33.5715 43.4716 41.3569 36.4643C47.5854 30.2358 56.1497 26.3431 65.4927 24.7855C69.3861 24.7862 72.5 21.6716 72.5 17.7789Z" fill="black" fill-opacity="0.1"/>
<path d="M39.0219 76.9499C39.0219 55.1499 56.1504 38.0214 77.9503 38.0214C87.2934 38.0214 95.8576 41.136 102.864 47.3645C95.0788 38.0214 84.957 32.5718 72.5 32.5718C50.7 32.5718 33.5716 49.7003 33.5716 71.5002C33.5716 83.9572 39.0212 94.0784 47.5854 101.086C42.1358 94.8572 39.0219 86.2929 39.0219 76.9499Z" fill="black" fill-opacity="0.4"/>
<defs>
<linearGradient id="paint0_linear_18989_97221" x1="34.6675" y1="33.1385" x2="100.279" y2="120.18" gradientUnits="userSpaceOnUse">
<stop stop-color="#9600A8"/>
<stop offset="1" stop-color="#FF477E"/>
</linearGradient>
</defs>
</svg>
