<svg width="26" height="26" viewBox="0 0 26 26" xmlns="http://www.w3.org/2000/svg">
<path d="M25.043 2.77408H21.8348C21.8464 2.41874 21.8529 2.0613 21.8529 1.70215C21.8529 1.2976 21.5249 0.969727 21.1205 0.969727H5.43027C5.02592 0.969727 4.69785 1.2976 4.69785 1.70215C4.69785 2.0613 4.70434 2.41874 4.71597 2.77408H1.50781C1.10326 2.77408 0.775391 3.10195 0.775391 3.5065C0.775391 6.78828 1.63313 9.88448 3.19048 12.225C4.7299 14.5388 6.78049 15.8659 8.99568 15.9951C9.49789 16.5415 10.0287 16.9871 10.5816 17.327V20.5822H9.35293C7.86749 20.5822 6.65918 21.7907 6.65918 23.276V24.5047H6.60711C6.20256 24.5047 5.87469 24.8328 5.87469 25.2371C5.87469 25.6417 6.20256 25.9695 6.60711 25.9695H19.9437C20.3482 25.9695 20.6761 25.6417 20.6761 25.2371C20.6761 24.8328 20.3482 24.5047 19.9437 24.5047H19.8916V23.276C19.8916 21.7907 18.6833 20.5822 17.1979 20.5822H15.9691V17.327C16.5221 16.9873 17.0531 16.5415 17.5553 15.9951C19.7703 15.8659 21.8209 14.5388 23.3605 12.225C24.9178 9.88448 25.7754 6.78828 25.7754 3.5065C25.7754 3.10195 25.4475 2.77408 25.043 2.77408ZM4.41003 11.4136C3.12543 9.48318 2.3707 6.95823 2.25568 4.23892H4.7978C5.06197 7.58174 5.84665 10.6716 7.07307 13.1243C7.26839 13.5149 7.47266 13.884 7.68457 14.2315C6.46635 13.7715 5.33891 12.8098 4.41003 11.4136ZM18.4268 23.276V24.5049H8.12402V23.276C8.12402 22.5985 8.67525 22.0471 9.35293 22.0471H17.1979C17.8755 22.0471 18.4268 22.5985 18.4268 23.276ZM14.5043 20.5822H12.0465V17.9634C12.4491 18.0695 12.8594 18.1246 13.2754 18.1246C13.6914 18.1246 14.1017 18.0695 14.5043 17.9634V20.5822ZM14.9579 16.2209C14.9249 16.2344 14.8932 16.2508 14.8629 16.269C14.3452 16.5264 13.8133 16.6598 13.2754 16.6598C12.7377 16.6598 12.2059 16.5264 11.6885 16.2693C11.6578 16.2508 11.6259 16.2344 11.5925 16.2205C11.0182 15.9169 10.4626 15.4583 9.93715 14.8558C9.90949 14.8163 9.8784 14.7799 9.84388 14.7467C9.32222 14.1274 8.83146 13.3656 8.38323 12.4691C7.03722 9.77729 6.25978 6.23782 6.17128 2.43457H20.3795C20.2908 6.23782 19.5134 9.77748 18.1675 12.4691C17.7193 13.3656 17.2286 14.1274 16.7071 14.7467C16.6724 14.7799 16.6409 14.8165 16.6134 14.856C16.088 15.4587 15.5322 15.917 14.9579 16.2209ZM22.1407 11.4136C21.2119 12.8098 20.0844 13.7715 18.8662 14.2315C19.0781 13.884 19.2824 13.5149 19.4777 13.1243C20.7041 10.6716 21.4886 7.58174 21.753 4.23892H24.2951C24.1801 6.95823 23.4253 9.48318 22.1407 11.4136Z"/>
</svg>
