<svg width="24" height="24" viewBox="0 0 24 24" xmlns="http://www.w3.org/2000/svg">
<path d="M12 10.68C11.268 10.68 10.68 11.268 10.68 12C10.68 12.732 11.268 13.32 12 13.32C12.732 13.32 13.32 12.732 13.32 12C13.32 11.268 12.732 10.68 12 10.68ZM12 0C5.376 0 0 5.376 0 12C0 18.624 5.376 24 12 24C18.624 24 24 18.624 24 12C24 5.376 18.624 0 12 0ZM14.628 14.628L6.04204 18.6222C5.6192 18.8189 5.1811 18.3808 5.3778 17.958L9.372 9.372L17.958 5.3778C18.3808 5.1811 18.8189 5.6192 18.6222 6.04204L14.628 14.628Z"/>
</svg>
