<svg width="22" height="24" viewBox="0 0 22 24" xmlns="http://www.w3.org/2000/svg">
<path d="M19.4 2.4H14.384C13.8799 1.008 12.56 0 11 0C9.43995 0 8.11995 1.008 7.61595 2.4H2.59995C1.27995 2.4 0.199951 3.48 0.199951 4.8V21.6C0.199951 22.92 1.27995 24 2.59995 24H19.4C20.7199 24 21.7999 22.92 21.7999 21.6V4.8C21.7999 3.48 20.7199 2.4 19.4 2.4ZM11 2.4C11.66 2.4 12.2 2.94 12.2 3.6C12.2 4.26 11.66 4.8 11 4.8C10.34 4.8 9.79995 4.26 9.79995 3.6C9.79995 2.94 10.34 2.4 11 2.4ZM11 7.2C12.992 7.2 14.6 8.808 14.6 10.8C14.6 12.792 12.992 14.4 11 14.4C9.00795 14.4 7.39995 12.792 7.39995 10.8C7.39995 8.808 9.00795 7.2 11 7.2ZM18.1999 21.6H3.79995V19.92C3.79995 17.52 8.59995 16.2 11 16.2C13.4 16.2 18.1999 17.52 18.1999 19.92V21.6Z"/>
</svg>
