<svg width="102" height="37" viewBox="0 0 102 37" fill="none" xmlns="http://www.w3.org/2000/svg">
<path d="M54.6976 30.1685L51.189 37C53.4734 36.2752 55.9217 36.2752 58.2062 37L54.6976 30.1685Z" fill="url(#paint0_linear)"/>
<path d="M63.3518 14.3841C63.2663 14.3613 63.192 14.3075 63.1429 14.233C63.0938 14.1584 63.0732 14.0683 63.0851 13.9794C63.2474 12.766 63.1516 11.5314 62.8044 10.3585C62.4572 9.1857 61.8665 8.10178 61.0721 7.17957C60.2776 6.25736 59.2977 5.51821 58.1983 5.01176C57.0988 4.50531 55.9052 4.24329 54.6976 4.24329C53.49 4.24329 52.2964 4.50531 51.197 5.01176C50.0975 5.51821 49.1176 6.25736 48.3232 7.17957C47.5287 8.10178 46.938 9.1857 46.5908 10.3585C46.2436 11.5314 46.1479 12.766 46.3101 13.9794C46.322 14.0683 46.3015 14.1584 46.2524 14.233C46.2032 14.3075 46.1289 14.3613 46.0434 14.3841C44.7725 14.7243 43.5971 15.36 42.6104 16.2408C41.6237 17.1216 40.8529 18.2233 40.359 19.4587C39.8651 20.694 39.6616 22.029 39.7647 23.3578C39.8679 24.6867 40.2748 25.973 40.9532 27.1147C41.6317 28.2565 42.563 29.2223 43.6734 29.9358C44.7838 30.6492 46.0428 31.0906 47.3506 31.225C48.6584 31.3594 49.9791 31.1831 51.2081 30.7101C52.4371 30.2371 53.5406 29.4804 54.4311 28.4999C54.465 28.4625 54.5062 28.4327 54.5521 28.4123C54.598 28.3919 54.6475 28.3813 54.6976 28.3813C54.7477 28.3813 54.7973 28.3919 54.8431 28.4123C54.889 28.4327 54.9302 28.4625 54.9641 28.4999C55.8547 29.48 56.9581 30.2364 58.187 30.7092C59.4158 31.1819 60.7363 31.358 62.0439 31.2234C63.3515 31.0889 64.6102 30.6475 65.7204 29.9341C66.8306 29.2208 67.7617 28.2551 68.44 27.1135C69.1183 25.972 69.5252 24.6859 69.6284 23.3573C69.7316 22.0286 69.5283 20.6939 69.0346 19.4587C68.5408 18.2236 67.7703 17.122 66.7839 16.2412C65.7976 15.3603 64.6225 14.7245 63.3518 14.3841V14.3841Z" fill="url(#paint1_linear)"/>
<path d="M48.6194 24.6139C48.2812 24.8568 47.7879 25.0927 47.1396 25.3213C46.4912 25.5357 45.8077 25.6643 45.0889 25.7072C42.7211 25.8501 40.8325 25.1427 39.4232 23.5849C38.0138 22.0127 37.3091 19.9833 37.3091 17.4965C37.3091 15.2241 37.8658 13.3662 38.9792 11.9227C40.1067 10.4792 41.7557 9.75745 43.9262 9.75745C45.3073 9.75745 46.4701 10.1362 47.4144 10.8937C48.3587 11.6368 48.8308 12.4943 48.8308 13.4662H46.3785C46.3503 12.8516 46.1037 12.3586 45.6386 11.987C45.1735 11.6011 44.5745 11.4082 43.8416 11.4082C42.7282 11.4082 41.7627 11.937 40.9453 12.9946C40.1279 14.0379 39.7191 15.417 39.7191 17.1321C39.7191 19.7189 40.3181 21.5483 41.5161 22.6202C42.7141 23.692 43.9966 24.1565 45.3637 24.0136C45.8288 23.9707 46.2446 23.8921 46.611 23.7778C46.9775 23.6492 47.3016 23.5134 47.5835 23.3705C47.8936 23.1847 48.1684 23.1204 48.408 23.1775C48.6617 23.2204 48.8308 23.349 48.9154 23.5634C49.014 23.7492 49.0281 23.9422 48.9577 24.1422C48.8872 24.3423 48.7744 24.4995 48.6194 24.6139Z" fill="white"/>
<path d="M58.6824 25.5786L57.1391 20.6479H52.6996L51.1563 25.5786H48.9788L53.059 12.8016C53.2845 12.0584 53.369 11.6297 53.3127 11.5153C53.2563 11.3867 53.1224 11.2938 52.911 11.2367C52.6432 11.1795 52.4318 11.108 52.2768 11.0223C52.1358 10.9222 52.0654 10.765 52.0654 10.5506C52.0654 10.2076 52.3261 10.0361 52.8476 10.0361H55.9764L61.0925 25.5786H58.6824ZM56.6318 19.0615L54.8771 13.5519L53.1647 19.0615H56.6318Z" fill="white"/>
<path d="M67.7095 21.2481C67.6673 20.6336 67.4065 20.0905 66.9273 19.6189C66.4622 19.1329 65.7223 18.6184 64.7075 18.0753C63.58 17.5037 62.7133 16.8605 62.1072 16.1459C61.5012 15.417 61.2193 14.5095 61.2616 13.4233C61.2898 12.3657 61.6915 11.4939 62.4666 10.8079C63.2559 10.1076 64.3129 9.75745 65.6377 9.75745C66.3988 9.75745 67.026 9.80747 67.5193 9.90751C68.0267 10.0076 68.5904 10.1433 69.2105 10.3148V12.2442C68.4777 11.9155 67.8223 11.6797 67.2444 11.5368C66.6807 11.3939 66.1592 11.3224 65.68 11.3224C65.1586 11.3224 64.6794 11.5153 64.2425 11.9012C63.8055 12.2871 63.5871 12.8231 63.5871 13.5091C63.5871 14.1379 63.8408 14.6953 64.3482 15.1812C64.8696 15.6529 65.68 16.1888 66.7793 16.7891C67.8646 17.3893 68.682 18.0539 69.2317 18.7828C69.7813 19.4974 70.0562 20.3335 70.0562 21.291C70.0562 22.4915 69.6474 23.5134 68.83 24.3566C68.0126 25.1998 66.8075 25.6572 65.2149 25.7286C64.623 25.7572 63.9958 25.7072 63.3334 25.5786C62.671 25.4357 62.1354 25.2284 61.7267 24.9569C61.473 24.7997 61.2968 24.6067 61.1982 24.3781C61.1136 24.1494 61.1277 23.9064 61.2405 23.6492C61.3532 23.4062 61.5364 23.249 61.7901 23.1775C62.0579 23.1061 62.375 23.1775 62.7415 23.3919C63.0515 23.5491 63.4391 23.6992 63.9042 23.8421C64.3693 23.9707 64.7992 24.0208 65.1938 23.9922C66.0535 23.935 66.7018 23.6563 67.1387 23.1561C67.5757 22.6416 67.7659 22.0056 67.7095 21.2481Z" fill="white"/>
<path d="M74.4112 25.5786H72.1491V12.5015C72.1491 12.0584 72.1209 11.7655 72.0645 11.6225C72.0082 11.4653 71.8884 11.351 71.7052 11.2795C71.4515 11.1938 71.226 11.1152 71.0286 11.0437C70.8454 10.958 70.7538 10.815 70.7538 10.615C70.7538 10.2291 71.0286 10.0361 71.5783 10.0361H73.629C74.1504 10.0361 74.4112 10.2648 74.4112 10.7221V25.5786Z" fill="white"/>
<path d="M79.9501 10.0361L85.1296 21.5268V10.0361H87.3071V24.5924C87.3071 25.2499 86.9195 25.5786 86.1443 25.5786H84.7702L79.3793 13.7878V25.5786H77.3286V12.4801C77.3286 12.0513 77.3075 11.7583 77.2652 11.6011C77.2229 11.4296 77.1101 11.3153 76.9269 11.2581C76.6873 11.1866 76.483 11.1152 76.3138 11.0437C76.1447 10.9723 76.0602 10.8293 76.0602 10.615C76.0602 10.2291 76.3279 10.0361 76.8635 10.0361H79.9501Z" fill="white"/>
<path d="M88.956 17.7109C88.956 15.3813 89.5268 13.4733 90.6684 11.987C91.8241 10.5006 93.4308 9.75745 95.4885 9.75745C97.5322 9.75745 99.1248 10.5006 100.266 11.987C101.422 13.4733 102 15.3813 102 17.7109C102 20.0548 101.422 21.977 100.266 23.4777C99.1248 24.964 97.5322 25.7072 95.4885 25.7072C93.4308 25.7072 91.8241 24.964 90.6684 23.4777C89.5268 21.977 88.956 20.0548 88.956 17.7109ZM91.3238 17.7109C91.3238 19.7403 91.7184 21.3053 92.5077 22.4058C93.311 23.5063 94.3047 24.0565 95.4885 24.0565C96.6724 24.0565 97.659 23.5063 98.4483 22.4058C99.2375 21.3053 99.6321 19.7403 99.6321 17.7109C99.6321 15.6957 99.2375 14.1379 98.4483 13.0374C97.659 11.937 96.6724 11.3867 95.4885 11.3867C94.3047 11.3867 93.311 11.937 92.5077 13.0374C91.7184 14.1379 91.3238 15.6957 91.3238 17.7109Z" fill="white"/>
<path d="M2.68053 12.5016C2.68053 12.0443 2.63121 11.7298 2.53255 11.5583C2.44799 11.3868 2.32819 11.2797 2.17316 11.2368C1.94765 11.1796 1.76443 11.1081 1.62349 11.0224C1.49665 10.9224 1.43323 10.7723 1.43323 10.5722C1.43323 10.2149 1.68692 10.0363 2.1943 10.0363H4.98488C5.54864 10.0363 6.18286 10.0577 6.88755 10.1006C7.59225 10.1292 8.17714 10.1863 8.64224 10.2721C10.0234 10.5436 11.1439 11.2868 12.0036 12.5016C12.8634 13.7021 13.2932 15.4958 13.2932 17.8825C13.2932 19.5261 13.0818 20.8409 12.659 21.8271C12.2362 22.7989 11.6724 23.5635 10.9677 24.1209C10.3053 24.6497 9.55129 25.0285 8.70566 25.2571C7.87412 25.4715 6.85232 25.5787 5.64025 25.5787H2.68053V12.5016ZM6.4436 24.0566C7.75433 24.0566 8.83251 23.5635 9.67814 22.5774C10.5238 21.577 10.9466 20.012 10.9466 17.8825C10.9466 15.8102 10.5942 14.2381 9.88955 13.1662C9.18485 12.0943 8.13486 11.5583 6.73957 11.5583H5.80937C5.23152 11.5583 4.9426 11.8227 4.9426 12.3515V23.2848C4.9426 23.7994 5.23152 24.0566 5.80937 24.0566H6.4436Z" fill="#7964F8"/>
<path d="M17.5425 16.7677H19.9526C20.6009 16.7677 21.066 16.6677 21.3479 16.4676C21.6297 16.2675 21.7707 15.946 21.7707 15.5029C21.7707 15.2742 21.9821 15.1599 22.4049 15.1599C22.8418 15.1599 23.0603 15.2742 23.0603 15.5029V19.5761C23.0603 19.8191 22.8418 19.9405 22.4049 19.9405C21.9821 19.9405 21.7707 19.8191 21.7707 19.5761C21.7707 19.1473 21.6227 18.8186 21.3267 18.59C21.0448 18.3613 20.5868 18.247 19.9526 18.247H17.5425V23.2848C17.5425 23.7994 17.8385 24.0566 18.4304 24.0566H21.221C21.7989 24.0566 22.1864 23.9065 22.3838 23.6064C22.5811 23.3063 22.715 22.9919 22.7854 22.6631C22.8559 22.2773 23.1166 22.1058 23.5676 22.1486C24.0186 22.1915 24.2441 22.3773 24.2441 22.706L24.0962 25.5787H15.2804V12.5016C15.2804 12.0443 15.2452 11.737 15.1747 11.5798C15.1184 11.4226 14.9986 11.3154 14.8154 11.2582C14.5898 11.1868 14.3996 11.1081 14.2445 11.0224C14.1036 10.9224 14.0331 10.7723 14.0331 10.5722C14.0331 10.2149 14.2798 10.0363 14.7731 10.0363H23.7579L23.8636 12.716C23.8636 13.0876 23.6381 13.2805 23.1871 13.2948C22.7361 13.2948 22.4965 13.1019 22.4683 12.716C22.4401 12.473 22.3203 12.2229 22.1089 11.9657C21.9116 11.6941 21.4958 11.5583 20.8616 11.5583H18.4093C17.8314 11.5583 17.5425 11.8227 17.5425 12.3515V16.7677Z" fill="#7964F8"/>
<path d="M25.4492 11.2368C25.2519 11.1653 25.0898 11.0939 24.9629 11.0224C24.8502 10.9366 24.7938 10.7866 24.7938 10.5722C24.7938 10.2149 25.0686 10.0363 25.6183 10.0363H27.6901L31.4954 21.9557L35.2374 10.0363H36.4847C36.8088 10.0363 37.0202 10.1292 37.1189 10.3149C37.2316 10.4864 37.2528 10.6937 37.1823 10.9366L32.2988 25.6216H30.4807L26.2102 12.8232C26.027 12.2658 25.8861 11.8799 25.7874 11.6655C25.7029 11.4369 25.5901 11.2939 25.4492 11.2368Z" fill="#7964F8"/>
<path d="M6.99511 10.9604C9.2708 10.1212 13.6309 5.86255 10.0781 0C9.62295 0.314689 6.74933 -0.254894 6.99511 10.9604Z" fill="#7964F8"/>
<path fill-rule="evenodd" clip-rule="evenodd" d="M8.23831 8.73411C8.29636 6.83433 8.47772 4.96204 8.49285 3.05786C8.233 3.85502 8.04251 5.03273 7.9166 6.1914C7.79024 7.35422 7.72676 8.51911 7.72681 9.30048L7.72684 9.84855L8.13858 9.49768C9.67021 8.19249 10.1946 7.39466 10.713 6.33456C9.98629 7.24664 9.13641 7.92218 8.23831 8.73411Z" fill="#1F1F26"/>
<path d="M0.35796 9.72948C-0.682789 8.06688 0.791605 4.88025 1.6589 3.49475H5.56169C5.23646 5.57299 1.65888 9.38311 0.35796 9.72948Z" fill="#7964F8"/>
<path fill-rule="evenodd" clip-rule="evenodd" d="M3.1014 8.457C4.01258 9.72033 5.1765 10.5856 6.03822 10.9053C6.09326 8.3788 5.99014 6.34511 5.79244 4.82021C5.66067 5.09651 5.50705 5.37254 5.34185 5.64172C4.91518 6.33698 4.3717 7.04967 3.80382 7.6986C3.57368 7.96157 3.33764 8.21624 3.1014 8.457ZM2.72301 7.88336C2.54151 7.58121 2.37608 7.2609 2.23261 6.92397C1.98535 8.655 0.455729 9.21551 0.358308 8.655C0.296987 8.30218 0.757907 6.76495 1.1556 5.4386C1.42671 4.53439 1.66844 3.72819 1.69528 3.46208L5.56464 3.46204C5.53106 3.67627 5.46287 3.90892 5.36615 4.15428C4.90903 5.31378 3.81451 6.7572 2.72301 7.88336Z" fill="#7964F8"/>
<path fill-rule="evenodd" clip-rule="evenodd" d="M3.46894 8.07109C3.82397 8.50959 4.28224 8.98107 4.92033 9.54679L5.3206 9.90165L5.32063 9.34734C5.32067 8.55708 5.25896 7.37892 5.13613 6.20286C5.12901 6.1347 5.12168 6.06647 5.11413 5.99826C4.98968 6.18578 4.85795 6.37357 4.72073 6.56004C4.76201 7.29636 4.80161 8.03337 4.82338 8.77452C4.63672 8.59895 4.4522 8.42969 4.27054 8.26305L4.27052 8.26303C4.0905 8.0979 3.91329 7.93534 3.73957 7.77176C3.65006 7.87297 3.55974 7.97285 3.46894 8.07109ZM4.66081 5.47932C4.77551 5.30187 4.88243 5.12573 4.97988 4.95249C4.97988 4.95245 4.97987 4.95242 4.97987 4.95239C4.88242 5.12563 4.7755 5.30177 4.66081 5.47922C4.66081 5.47926 4.66081 5.47929 4.66081 5.47932ZM3.06387 7.52149C3.06386 7.52148 3.06385 7.52146 3.06384 7.52144C3.12923 7.44999 3.19439 7.37761 3.25918 7.30444C3.25919 7.30446 3.2592 7.30447 3.25922 7.30448C3.19443 7.37766 3.12927 7.45004 3.06387 7.52149Z" fill="#1F1F26"/>
<defs>
<linearGradient id="paint0_linear" x1="54.6976" y1="30.1685" x2="54.6976" y2="37" gradientUnits="userSpaceOnUse">
<stop stop-color="#079B9B"/>
<stop offset="1" stop-color="#1DC0C0"/>
</linearGradient>
<linearGradient id="paint1_linear" x1="54.6966" y1="4.24329" x2="54.6966" y2="31.2687" gradientUnits="userSpaceOnUse">
<stop stop-color="#079B9B"/>
<stop offset="1" stop-color="#1DC0C0"/>
</linearGradient>
</defs>
</svg>
